<svg xmlns="http://www.w3.org/2000/svg" viewBox="0 0 500 500"><g id="freepik--background-complete--inject-79"><circle cx="84.51" cy="170.19" r="49.84" transform="translate(-27.07 16.38) rotate(-9.55)" style="fill:#f5f5f5"></circle><circle cx="84.51" cy="169.11" r="33.39" transform="translate(-94.83 109.29) rotate(-45)" style="fill:#e0e0e0"></circle><path d="M118.65,167.31a4.79,4.79,0,0,1,.89-.36,10.56,10.56,0,0,1,2.72-.39,11.25,11.25,0,0,1,4.27.83A10.27,10.27,0,0,1,133,177.6a10.68,10.68,0,0,1-3.18,7.31,11.1,11.1,0,0,1-8.28,3,10.58,10.58,0,0,1-4.57-1.31,5.59,5.59,0,0,1-1.91-1.63,2.92,2.92,0,0,1-.41-2.59,2.41,2.41,0,0,1,2.16-1.5,7,7,0,0,1,2.47.28,10.35,10.35,0,0,1,4.18,2.25,10.69,10.69,0,0,1,3.82,7.91,10.81,10.81,0,0,1-3,7.39,10.25,10.25,0,0,1-6.18,3.21,10.47,10.47,0,0,1-5.67-1,11.21,11.21,0,0,1-3.51-2.58,10.15,10.15,0,0,1-1.53-2.27,4.07,4.07,0,0,1-.33-.9,12.88,12.88,0,0,0,2.05,3,11.23,11.23,0,0,0,3.47,2.41,10.22,10.22,0,0,0,5.46.82,9.8,9.8,0,0,0,5.84-3.12,10.3,10.3,0,0,0,2.8-7,10.13,10.13,0,0,0-3.63-7.42,9.87,9.87,0,0,0-3.93-2.11,6.61,6.61,0,0,0-2.23-.26,1.74,1.74,0,0,0-1.6,1.07,2.27,2.27,0,0,0,.33,2,5,5,0,0,0,1.69,1.42,9.91,9.91,0,0,0,4.28,1.23,10.46,10.46,0,0,0,7.82-2.74,10.13,10.13,0,0,0-3-16.72,11.09,11.09,0,0,0-4.12-.92A13.43,13.43,0,0,0,118.65,167.31Z" style="fill:#e0e0e0"></path><path d="M102.26,141.28a5.15,5.15,0,0,1,.22-.93,10.21,10.21,0,0,1,1.23-2.45,11.12,11.12,0,0,1,3.11-3,10.75,10.75,0,0,1,16.28,7.26,11.06,11.06,0,0,1-2.3,8.49,10.52,10.52,0,0,1-3.68,3,5.61,5.61,0,0,1-2.42.64,2.9,2.9,0,0,1-2.36-1.15,2.38,2.38,0,0,1,0-2.62,6.9,6.9,0,0,1,1.64-1.87,10.52,10.52,0,0,1,4.23-2.16,10.32,10.32,0,0,1,13,8.07,10.23,10.23,0,0,1-.89,6.9,10.57,10.57,0,0,1-4,4.13,11.36,11.36,0,0,1-4.12,1.4,9.87,9.87,0,0,1-2.74,0,4.56,4.56,0,0,1-.93-.24,12.49,12.49,0,0,0,3.63,0,11.09,11.09,0,0,0,4-1.47,10.16,10.16,0,0,0,3.79-4,9.75,9.75,0,0,0,.77-6.58,10.26,10.26,0,0,0-4.15-6.29,10.13,10.13,0,0,0-8.17-1.25,9.76,9.76,0,0,0-4,2,6.41,6.41,0,0,0-1.49,1.68,1.74,1.74,0,0,0,0,1.92,2.25,2.25,0,0,0,1.82.86,5,5,0,0,0,2.13-.57,10,10,0,0,0,3.46-2.81,10.5,10.5,0,0,0,2.2-8,10.52,10.52,0,0,0-10.17-8.63,10.39,10.39,0,0,0-5.3,1.58,11.32,11.32,0,0,0-3.1,2.87A13.78,13.78,0,0,0,102.26,141.28Z" style="fill:#e0e0e0"></path><path d="M72,137.2a4.59,4.59,0,0,1-.63-.68,10,10,0,0,1-1.31-2.31,10.39,10.39,0,0,1-.7-4.15,9.46,9.46,0,0,1,1.81-5.27,10.3,10.3,0,0,1,5.66-3.65,10.92,10.92,0,0,1,13.3,7.11,9.73,9.73,0,0,1,.42,4.59,5.15,5.15,0,0,1-.86,2.28,2.84,2.84,0,0,1-2.26,1.16,2.45,2.45,0,0,1-2.14-1.39,6.7,6.7,0,0,1-.63-2.33,9.5,9.5,0,0,1,.67-4.56,10,10,0,0,1,6.19-5.81,11.27,11.27,0,0,1,7.72.5,10.5,10.5,0,0,1,5.09,4.41,9.76,9.76,0,0,1,1.21,5.44,10.22,10.22,0,0,1-1.18,4,9,9,0,0,1-1.62,2.1,4,4,0,0,1-.73.57,11.61,11.61,0,0,0,2.12-2.8,10.27,10.27,0,0,0,1-3.93,9.36,9.36,0,0,0-1.25-5.18A10.13,10.13,0,0,0,99,123.2a10.72,10.72,0,0,0-7.31-.42,9.34,9.34,0,0,0-5.77,5.46,8.75,8.75,0,0,0-.61,4.25,5.77,5.77,0,0,0,.55,2.08,1.76,1.76,0,0,0,1.55,1.05,2.17,2.17,0,0,0,1.72-.9,4.52,4.52,0,0,0,.74-2,8.94,8.94,0,0,0-.38-4.27A10.34,10.34,0,0,0,77,121.68a9.78,9.78,0,0,0-5.42,3.4,9.14,9.14,0,0,0-1.82,5,10.45,10.45,0,0,0,.57,4A13.11,13.11,0,0,0,72,137.2Z" style="fill:#e0e0e0"></path><path d="M124.62,174.28c0,.1-.36.14-.62.55a.75.75,0,1,0,1.3.16c-.15-.46-.5-.59-.47-.68s.52-.14.9.48a1.34,1.34,0,0,1,.06,1.22,1.31,1.31,0,0,1-1.37.69,1.26,1.26,0,0,1-.79-2.17C124.15,174,124.66,174.2,124.62,174.28Z" style="fill:#e0e0e0"></path><path d="M122.56,158c0,.1-.36.14-.62.55a.75.75,0,1,0,1.3.16c-.15-.46-.49-.59-.47-.68s.52-.14.9.48a1.34,1.34,0,0,1,.06,1.22,1.3,1.3,0,0,1-1.36.69,1.33,1.33,0,0,1-1.16-1,1.35,1.35,0,0,1,.36-1.17C122.09,157.76,122.61,157.94,122.56,158Z" style="fill:#e0e0e0"></path><path d="M113,139.89c0,.1-.37.13-.63.55a.76.76,0,1,0,1.31.16c-.15-.46-.5-.59-.47-.69s.52-.13.89.49a1.31,1.31,0,0,1,.07,1.22,1.33,1.33,0,1,1-2.16-1.48C112.51,139.63,113,139.81,113,139.89Z" style="fill:#e0e0e0"></path><path d="M98.06,131.61c0,.1-.37.14-.63.55a.76.76,0,1,0,1.31.17c-.15-.47-.5-.59-.47-.69s.52-.14.89.49a1.25,1.25,0,0,1-1.3,1.9,1.32,1.32,0,0,1-1.16-1,1.34,1.34,0,0,1,.37-1.16C97.59,131.35,98.1,131.54,98.06,131.61Z" style="fill:#e0e0e0"></path><path d="M78.61,129.87c0,.1-.37.14-.63.55a.74.74,0,0,0,.51,1.21.73.73,0,0,0,.79-1c-.14-.47-.49-.59-.47-.69s.52-.14.9.49a1.34,1.34,0,0,1,.07,1.22,1.38,1.38,0,0,1-2.53-.32,1.34,1.34,0,0,1,.37-1.17C78.13,129.61,78.65,129.8,78.61,129.87Z" style="fill:#e0e0e0"></path><path d="M117.1,191.74c0,.1-.36.14-.62.55a.75.75,0,1,0,1.3.16c-.15-.46-.5-.59-.47-.68s.52-.14.9.48a1.34,1.34,0,0,1,.06,1.22,1.3,1.3,0,0,1-1.36.69,1.26,1.26,0,0,1-.8-2.17C116.63,191.48,117.14,191.66,117.1,191.74Z" style="fill:#e0e0e0"></path><path d="M50.74,161.09a5,5,0,0,1-1,0,10.11,10.11,0,0,1-2.7-.49,11.42,11.42,0,0,1-3.78-2.16,10.76,10.76,0,0,1,2.48-17.66,11.08,11.08,0,0,1,8.79-.13,10.38,10.38,0,0,1,3.91,2.71,5.62,5.62,0,0,1,1.29,2.15,2.86,2.86,0,0,1-.45,2.58,2.4,2.4,0,0,1-2.52.74,7.29,7.29,0,0,1-2.25-1.06,10.55,10.55,0,0,1-3.24-3.48,10.31,10.31,0,0,1,4.15-14.75,10.25,10.25,0,0,1,6.88-1.06,10.5,10.5,0,0,1,5.07,2.73,11,11,0,0,1,2.49,3.56,10.34,10.34,0,0,1,.72,2.65,4.64,4.64,0,0,1,0,1,13.22,13.22,0,0,0-1-3.5,11.09,11.09,0,0,0-2.51-3.4A10.22,10.22,0,0,0,62.25,129a9.78,9.78,0,0,0-6.52,1.08A9.75,9.75,0,0,0,51.88,144a9.86,9.86,0,0,0,3,3.25,6.2,6.2,0,0,0,2,1,1.71,1.71,0,0,0,1.85-.5,2.2,2.2,0,0,0,.32-2A4.75,4.75,0,0,0,58,143.84a10,10,0,0,0-3.65-2.55,10.5,10.5,0,0,0-8.29.09,10.51,10.51,0,0,0-5.47,12.17,10.27,10.27,0,0,0,3,4.65,11.5,11.5,0,0,0,3.61,2.19A13.79,13.79,0,0,0,50.74,161.09Z" style="fill:#e0e0e0"></path><path d="M57.91,191a4.22,4.22,0,0,1-.51.81,9.94,9.94,0,0,1-1.94,1.94,11.42,11.42,0,0,1-3.93,1.87A10.76,10.76,0,0,1,38.44,183.5a11.09,11.09,0,0,1,4.91-7.3,10.5,10.5,0,0,1,4.45-1.67,5.48,5.48,0,0,1,2.5.18,2.88,2.88,0,0,1,1.87,1.84,2.4,2.4,0,0,1-.84,2.49,7,7,0,0,1-2.15,1.24,10.6,10.6,0,0,1-4.7.68,10.31,10.31,0,0,1-9.75-11.82,10.28,10.28,0,0,1,3.06-6.26,10.54,10.54,0,0,1,5.12-2.61,11.3,11.3,0,0,1,4.35,0,10.07,10.07,0,0,1,2.59.92,4.79,4.79,0,0,1,.8.52,13.28,13.28,0,0,0-3.43-1.18,11.15,11.15,0,0,0-4.23.12,10.19,10.19,0,0,0-4.88,2.59,9.8,9.8,0,0,0-2.83,6,9.74,9.74,0,0,0,9.25,11.11,9.87,9.87,0,0,0,4.41-.65,6.44,6.44,0,0,0,1.94-1.12,1.72,1.72,0,0,0,.65-1.8,2.23,2.23,0,0,0-1.45-1.4,4.78,4.78,0,0,0-2.2-.14,9.76,9.76,0,0,0-4.17,1.55,10.49,10.49,0,0,0-4.66,6.85,10.14,10.14,0,0,0,12.39,11.64,11.37,11.37,0,0,0,3.86-1.71A13.25,13.25,0,0,0,57.91,191Z" style="fill:#e0e0e0"></path><path d="M85.27,204.58a4.43,4.43,0,0,1,.38.85,10,10,0,0,1,.5,2.61,10.4,10.4,0,0,1-.67,4.15,9.42,9.42,0,0,1-3.41,4.4,10.25,10.25,0,0,1-6.53,1.65,10.9,10.9,0,0,1-10.31-11,9.52,9.52,0,0,1,1.08-4.48,5,5,0,0,1,1.54-1.88,2.87,2.87,0,0,1,2.52-.38,2.47,2.47,0,0,1,1.57,2,6.44,6.44,0,0,1-.16,2.41,9.42,9.42,0,0,1-2.09,4.1A10,10,0,0,1,62,212.53a11.37,11.37,0,0,1-7.15-2.95,10.51,10.51,0,0,1-3.4-5.82,9.61,9.61,0,0,1,.6-5.53,9.86,9.86,0,0,1,2.42-3.45,9,9,0,0,1,2.2-1.47,4.44,4.44,0,0,1,.88-.31,11.59,11.59,0,0,0-2.91,2,9.89,9.89,0,0,0-2.24,3.4,9.25,9.25,0,0,0-.49,5.3,10.11,10.11,0,0,0,3.31,5.49A10.74,10.74,0,0,0,62,211.91a9.35,9.35,0,0,0,7.22-3.32,8.9,8.9,0,0,0,2-3.83,6,6,0,0,0,.14-2.15,1.8,1.8,0,0,0-1.13-1.49,2.17,2.17,0,0,0-1.92.31,4.43,4.43,0,0,0-1.34,1.64,9,9,0,0,0-1,4.16,10.33,10.33,0,0,0,9.7,10.45,9.8,9.8,0,0,0,6.23-1.48,9.12,9.12,0,0,0,3.32-4.15,10.42,10.42,0,0,0,.76-4A13.47,13.47,0,0,0,85.27,204.58Z" style="fill:#e0e0e0"></path><path d="M47.33,152.56c0-.09.39,0,.76-.32a.73.73,0,0,0-.09-1.3.74.74,0,0,0-1.09.73c0,.49.28.72.23.8s-.54,0-.7-.75a1.26,1.26,0,0,1,1.85-1.38,1.25,1.25,0,0,1,.05,2.3C47.69,153,47.26,152.62,47.33,152.56Z" style="fill:#e0e0e0"></path><path d="M44.06,168.62c0-.09.39,0,.76-.32a.73.73,0,0,0-.09-1.3.74.74,0,0,0-1.09.73c0,.49.28.72.23.8s-.54,0-.7-.75a1.33,1.33,0,0,1,.33-1.17,1.33,1.33,0,1,1,1.57,2.1C44.42,169,44,168.68,44.06,168.62Z" style="fill:#e0e0e0"></path><path d="M47.31,188.87c0-.09.39,0,.77-.32A.75.75,0,1,0,46.9,188c0,.49.28.72.22.8s-.53,0-.69-.75a1.33,1.33,0,1,1,1.9.92C47.67,189.27,47.25,188.93,47.31,188.87Z" style="fill:#e0e0e0"></path><path d="M58.79,201.5c0-.09.39,0,.76-.32a.75.75,0,1,0-1.17-.57c0,.48.27.72.22.8s-.54,0-.69-.75a1.25,1.25,0,0,1,1.84-1.39,1.3,1.3,0,0,1,.77,1.32,1.33,1.33,0,0,1-.71,1C59.15,201.9,58.72,201.56,58.79,201.5Z" style="fill:#e0e0e0"></path><path d="M76.65,209.39c0-.09.39,0,.77-.32a.75.75,0,1,0-1.18-.57c0,.49.28.72.22.8s-.53,0-.69-.75a1.32,1.32,0,0,1,.33-1.17,1.38,1.38,0,0,1,2.29,1.11,1.32,1.32,0,0,1-.72,1C77,209.79,76.59,209.45,76.65,209.39Z" style="fill:#e0e0e0"></path><path d="M92.31,210.21c0-.09.39,0,.77-.32a.75.75,0,1,0-1.18-.57c0,.49.28.72.22.8s-.54,0-.69-.75A1.26,1.26,0,0,1,93.27,208a1.32,1.32,0,0,1,.78,1.32,1.35,1.35,0,0,1-.72,1C92.67,210.61,92.24,210.27,92.31,210.21Z" style="fill:#e0e0e0"></path><path d="M106.19,203.38c0-.09.39,0,.77-.32a.75.75,0,1,0-1.18-.57c0,.48.28.72.22.8s-.53,0-.69-.75a1.34,1.34,0,0,1,.33-1.18,1.33,1.33,0,1,1,1.57,2.1C106.55,203.78,106.13,203.44,106.19,203.38Z" style="fill:#e0e0e0"></path><path d="M60.05,138.44c0-.09.39,0,.77-.32a.75.75,0,1,0-1.18-.57c0,.49.28.72.22.8s-.53,0-.69-.75a1.32,1.32,0,0,1,.33-1.17,1.38,1.38,0,0,1,2.29,1.1,1.32,1.32,0,0,1-.72,1C60.41,138.84,60,138.5,60.05,138.44Z" style="fill:#e0e0e0"></path><path d="M107.52,196.2a3.91,3.91,0,0,1,.58.59,12.67,12.67,0,0,1,1.36,1.94,14.21,14.21,0,0,1,1.75,8.46,9.72,9.72,0,0,1-2.27,5.61,5.22,5.22,0,0,1-3.06,1.61,6.76,6.76,0,0,1-3.61-.55c-2.34-1-4-3.1-5.6-5.24a5.5,5.5,0,0,1-1.17-4,3.24,3.24,0,0,1,1.06-2,3.12,3.12,0,0,1,2.16-.7,6.16,6.16,0,0,1,3.9,1.78,7.94,7.94,0,0,1,2.1,3.57,7.41,7.41,0,0,1,0,4,8.3,8.3,0,0,1-1.88,3.33,8.78,8.78,0,0,1-6.29,2.87,10.14,10.14,0,0,1-5.79-1.73,10.4,10.4,0,0,1-3.35-3.69,11.69,11.69,0,0,1-1.26-3.54,10.32,10.32,0,0,1-.2-2.37,2.78,2.78,0,0,1,.08-.82,20.46,20.46,0,0,0,.37,3.13,11.79,11.79,0,0,0,1.33,3.41A10.09,10.09,0,0,0,91,215.37a9.63,9.63,0,0,0,5.52,1.57,8.16,8.16,0,0,0,5.84-2.72,7,7,0,0,0,1.69-6.74,7.15,7.15,0,0,0-1.92-3.26,5.54,5.54,0,0,0-3.46-1.59,2.47,2.47,0,0,0-1.71.54,2.55,2.55,0,0,0-.83,1.57,4.89,4.89,0,0,0,1,3.51c1.5,2.09,3.17,4.1,5.31,5.05a6.21,6.21,0,0,0,3.28.53,4.62,4.62,0,0,0,2.74-1.42,9.32,9.32,0,0,0,2.2-5.27,14.3,14.3,0,0,0-1.51-8.28A26.59,26.59,0,0,0,107.52,196.2Z" style="fill:#e0e0e0"></path><path d="M134.35,170.19s0-.27-.08-.81-.08-1.34-.15-2.36c0-.52-.07-1.1-.1-1.74s-.21-1.33-.32-2.08-.25-1.56-.39-2.43a25.25,25.25,0,0,0-.65-2.72,47.67,47.67,0,0,0-5.52-13.21,49.32,49.32,0,0,0-12.62-14.07l-2.14-1.6c-.76-.49-1.55-.95-2.34-1.43s-1.56-1-2.41-1.4l-2.58-1.23-1.31-.62-1.37-.5-2.79-1c-1-.31-1.94-.51-2.92-.78a27.18,27.18,0,0,0-3-.68,45.9,45.9,0,0,0-6.27-.72c-1.07,0-2.14-.14-3.23-.13l-3.28.17c-.55,0-1.1,0-1.65.11l-1.65.25c-1.11.19-2.23.32-3.34.55a51.57,51.57,0,0,0-6.6,1.93,53.27,53.27,0,0,0-6.46,2.84c-1,.57-2,1.23-3.08,1.85-.51.32-1.05.6-1.53,1l-1.46,1.09a57.3,57.3,0,0,0-5.62,4.78,57.21,57.21,0,0,0-4.85,5.74l-1.14,1.52-1,1.63-1,1.64a13.12,13.12,0,0,0-.92,1.69l-1.68,3.49-1.35,3.67a49.12,49.12,0,0,0,0,31.24c.45,1.22.9,2.45,1.34,3.67S40,191.81,40.59,193l.42.86.5.83,1,1.64,1,1.63,1.14,1.52a55.91,55.91,0,0,0,4.85,5.74A56.16,56.16,0,0,0,55.11,210l1.46,1.09c.48.36,1,.64,1.53,1,1,.61,2,1.27,3.08,1.84a51.75,51.75,0,0,0,6.46,2.84,52.94,52.94,0,0,0,6.61,1.94c1.1.23,2.23.36,3.33.54l1.65.25c.55.07,1.11.07,1.66.11l3.27.17c1.09,0,2.17-.09,3.23-.12a47.53,47.53,0,0,0,6.27-.73,23.28,23.28,0,0,0,3-.68c1-.26,2-.47,2.92-.78l2.79-1,1.38-.5,1.3-.62,2.58-1.23c.86-.39,1.62-.94,2.42-1.4s1.58-.93,2.33-1.43l2.14-1.6a49.32,49.32,0,0,0,12.62-14.07,47.37,47.37,0,0,0,5.52-13.21,24.7,24.7,0,0,0,.65-2.72q.21-1.29.39-2.43c.11-.75.25-1.44.32-2.08s.07-1.22.1-1.74c.07-1,.12-1.81.15-2.36s.08-.81.08-.81,0,.27,0,.81-.05,1.35-.09,2.37c0,.52,0,1.11-.07,1.75s-.18,1.34-.28,2.09-.23,1.57-.36,2.44a27.06,27.06,0,0,1-.62,2.74,47.38,47.38,0,0,1-5.45,13.34A49.73,49.73,0,0,1,114.81,210l-2.16,1.62c-.76.5-1.56,1-2.35,1.45s-1.57,1-2.43,1.43l-2.6,1.25-1.32.63-1.39.51-2.82,1c-.95.32-2,.53-2.95.8a25.17,25.17,0,0,1-3,.7,46.78,46.78,0,0,1-6.33.75c-1.08,0-2.17.14-3.27.13l-3.32-.16c-.55,0-1.12,0-1.67-.11l-1.67-.25c-1.12-.18-2.26-.31-3.38-.54a54.66,54.66,0,0,1-6.69-2,53.13,53.13,0,0,1-6.55-2.87c-1.06-.57-2.07-1.24-3.12-1.86-.52-.33-1.06-.61-1.55-1l-1.48-1.1a57.57,57.57,0,0,1-5.7-4.83,57.38,57.38,0,0,1-4.92-5.81L43,198.29l-1-1.65-1-1.66-.5-.83-.43-.88-1.71-3.54c-.45-1.23-.9-2.47-1.36-3.71a49.67,49.67,0,0,1,0-31.66c.46-1.25.91-2.49,1.37-3.72s1.14-2.36,1.7-3.54a13.49,13.49,0,0,1,.94-1.71l1-1.66,1-1.65,1.15-1.54A56.39,56.39,0,0,1,49,134.73a56.34,56.34,0,0,1,5.69-4.83l1.48-1.1c.49-.37,1-.65,1.55-1,1.05-.62,2.07-1.29,3.13-1.86a52.35,52.35,0,0,1,6.54-2.87,52.89,52.89,0,0,1,6.69-1.94c1.12-.23,2.26-.36,3.37-.55l1.68-.25c.55-.07,1.12-.07,1.67-.1l3.32-.17c1.1,0,2.18.1,3.27.14a45.24,45.24,0,0,1,6.33.75,25.59,25.59,0,0,1,3,.69c1,.27,2,.48,2.95.8l2.82,1,1.38.51,1.33.63,2.59,1.25c.87.4,1.63,1,2.44,1.43s1.59,1,2.35,1.45l2.16,1.62a49.53,49.53,0,0,1,12.65,14.26A46.79,46.79,0,0,1,132.91,158a24.73,24.73,0,0,1,.63,2.74c.13.87.25,1.68.36,2.44s.23,1.45.28,2.09,0,1.23.07,1.75c0,1,.07,1.81.09,2.37S134.35,170.19,134.35,170.19Z" style="fill:#e0e0e0"></path><circle cx="84.51" cy="169.11" r="33.39" transform="translate(-94.83 109.29) rotate(-45)" style="fill:#fafafa"></circle><path d="M117.9,169.11a3.73,3.73,0,0,1-.06-.54c0-.39-.06-.91-.11-1.58,0-.35,0-.74-.07-1.17s-.14-.89-.22-1.39a23.75,23.75,0,0,0-.71-3.44,31.55,31.55,0,0,0-3.71-8.84A33.11,33.11,0,0,0,73.24,138a34.8,34.8,0,0,0-4.31,1.89,35.84,35.84,0,0,0-4.06,2.61,37.45,37.45,0,0,0-3.75,3.19,37.56,37.56,0,0,0-3.24,3.84,32.25,32.25,0,0,0-4.72,9.1,32.69,32.69,0,0,0,0,20.87,31.67,31.67,0,0,0,4.72,9.11,37.56,37.56,0,0,0,3.24,3.84,38.81,38.81,0,0,0,3.75,3.19,35.84,35.84,0,0,0,4.06,2.61,34.8,34.8,0,0,0,4.31,1.89,33.25,33.25,0,0,0,17.39,1.46A33.44,33.44,0,0,0,113,186.07a32,32,0,0,0,3.7-8.84,23.75,23.75,0,0,0,.71-3.44c.08-.5.17-1,.22-1.39s0-.82.07-1.17c0-.67.09-1.19.11-1.58a3.73,3.73,0,0,1,.06-.54,2,2,0,0,1,0,.54c0,.39,0,.92,0,1.59,0,.36,0,.75,0,1.18s-.12.89-.18,1.4a24.87,24.87,0,0,1-.65,3.47,31.81,31.81,0,0,1-3.64,9A33.52,33.52,0,0,1,73,200.76a34.7,34.7,0,0,1-4.4-1.92,33.71,33.71,0,0,1-4.14-2.65,37.64,37.64,0,0,1-3.83-3.25,38.92,38.92,0,0,1-3.31-3.9,32.84,32.84,0,0,1-4.83-9.29,33.34,33.34,0,0,1,0-21.29,32.28,32.28,0,0,1,4.83-9.28,39,39,0,0,1,3.3-3.91A38.86,38.86,0,0,1,64.49,142a33.71,33.71,0,0,1,4.14-2.65,34.7,34.7,0,0,1,4.4-1.92A33.67,33.67,0,0,1,90.73,136,33.63,33.63,0,0,1,113.35,152a31.88,31.88,0,0,1,3.64,9,25.26,25.26,0,0,1,.65,3.48c.06.51.15,1,.18,1.4s0,.82,0,1.18c0,.67,0,1.2,0,1.59A2,2,0,0,1,117.9,169.11Z" style="fill:#e0e0e0"></path><circle cx="388.11" cy="91.97" r="65.15" transform="translate(-9.81 64.69) rotate(-9.41)" style="fill:#f5f5f5"></circle><circle cx="388.11" cy="90.55" r="43.65" transform="translate(49.64 300.96) rotate(-45)" style="fill:#e0e0e0"></circle><path d="M432.74,88.19a6.67,6.67,0,0,1,1.16-.46,13.19,13.19,0,0,1,3.55-.51A14.69,14.69,0,0,1,443,88.31a13.36,13.36,0,0,1,8.49,13.34,14,14,0,0,1-4.15,9.55,14.48,14.48,0,0,1-10.83,3.86,13.63,13.63,0,0,1-6-1.71,7.22,7.22,0,0,1-2.5-2.12,3.8,3.8,0,0,1-.53-3.39,3.14,3.14,0,0,1,2.81-2,9.1,9.1,0,0,1,3.23.37,13.7,13.7,0,0,1,5.47,2.94,13.48,13.48,0,0,1,1.06,20,13.41,13.41,0,0,1-8.08,4.2,13.82,13.82,0,0,1-7.42-1.24,14.83,14.83,0,0,1-4.58-3.37,13.18,13.18,0,0,1-2-3,7.29,7.29,0,0,1-.44-1.17,17.51,17.51,0,0,0,2.69,3.92,14.69,14.69,0,0,0,4.53,3.15,13.36,13.36,0,0,0,7.14,1.08,12.79,12.79,0,0,0,7.63-4.09,12.73,12.73,0,0,0-1.09-18.85,12.9,12.9,0,0,0-5.13-2.75,8.38,8.38,0,0,0-2.92-.34,2.27,2.27,0,0,0-2.08,1.39,2.9,2.9,0,0,0,.43,2.6,6.43,6.43,0,0,0,2.2,1.86,13.05,13.05,0,0,0,5.6,1.62,13.72,13.72,0,0,0,10.22-3.59,13.74,13.74,0,0,0,1.68-17.35,13.48,13.48,0,0,0-5.65-4.51,14.78,14.78,0,0,0-5.39-1.2A17.84,17.84,0,0,0,432.74,88.19Z" style="fill:#e0e0e0"></path><path d="M411.31,54.18A6.37,6.37,0,0,1,411.6,53a13.2,13.2,0,0,1,1.6-3.21,14.6,14.6,0,0,1,4.08-4,13.41,13.41,0,0,1,15.8.63,14,14,0,0,1,5.48,8.87,14.5,14.5,0,0,1-3,11.09,13.72,13.72,0,0,1-4.82,3.93,7.28,7.28,0,0,1-3.16.84,3.78,3.78,0,0,1-3.09-1.49,3.14,3.14,0,0,1,0-3.44,9.54,9.54,0,0,1,2.14-2.44,14.39,14.39,0,0,1,16.88-1,14.11,14.11,0,0,1,5.69,8.75,13.38,13.38,0,0,1-1.16,9,13.77,13.77,0,0,1-5.25,5.39,14.75,14.75,0,0,1-5.38,1.84,13.15,13.15,0,0,1-3.59-.05,7.08,7.08,0,0,1-1.21-.31,17.5,17.5,0,0,0,4.75,0,14.68,14.68,0,0,0,5.18-1.92,13.34,13.34,0,0,0,5-5.25,12.76,12.76,0,0,0,1-8.59A13.41,13.41,0,0,0,443,63.43a13.23,13.23,0,0,0-10.67-1.64,12.89,12.89,0,0,0-5.19,2.65,8.24,8.24,0,0,0-1.94,2.2,2.27,2.27,0,0,0-.05,2.51,2.94,2.94,0,0,0,2.38,1.13,6.54,6.54,0,0,0,2.79-.75,12.85,12.85,0,0,0,4.51-3.68,13.68,13.68,0,0,0,2.89-10.44,13.27,13.27,0,0,0-20.22-9.21A14.64,14.64,0,0,0,413.48,50,17.65,17.65,0,0,0,411.31,54.18Z" style="fill:#e0e0e0"></path><path d="M371.73,48.83a5.15,5.15,0,0,1-.82-.88,13.08,13.08,0,0,1-1.71-3,13.57,13.57,0,0,1-.91-5.43,12.26,12.26,0,0,1,2.37-6.88,13.36,13.36,0,0,1,7.4-4.77,14.26,14.26,0,0,1,17.38,9.3,12.47,12.47,0,0,1,.54,6,6.57,6.57,0,0,1-1.12,3,3.68,3.68,0,0,1-3,1.52,3.17,3.17,0,0,1-2.78-1.82,8.53,8.53,0,0,1-.83-3,12.38,12.38,0,0,1,.88-6,13,13,0,0,1,8.09-7.59,14.75,14.75,0,0,1,10.09.65A13.83,13.83,0,0,1,414,35.64a12.6,12.6,0,0,1,1.58,7.11A13,13,0,0,1,414,48a11.77,11.77,0,0,1-2.11,2.75,5.78,5.78,0,0,1-.95.75,15.33,15.33,0,0,0,2.76-3.66,12.86,12.86,0,0,0,1.36-5.15A12.19,12.19,0,0,0,413.47,36a13.21,13.21,0,0,0-6.41-5.41A14,14,0,0,0,397.5,30,12.29,12.29,0,0,0,390,37.13a11.61,11.61,0,0,0-.8,5.55,7.71,7.71,0,0,0,.72,2.72,2.3,2.3,0,0,0,2,1.37,2.84,2.84,0,0,0,2.25-1.18,5.72,5.72,0,0,0,1-2.59,11.57,11.57,0,0,0-.49-5.58,13.77,13.77,0,0,0-6.87-7.94,13.92,13.92,0,0,0-9.52-.93A12.78,12.78,0,0,0,371.15,33a11.88,11.88,0,0,0-2.38,6.53,13.53,13.53,0,0,0,.75,5.28A17.62,17.62,0,0,0,371.73,48.83Z" style="fill:#e0e0e0"></path><path d="M440.54,97.31c0,.13-.48.18-.81.72a1,1,0,1,0,1.7.21c-.2-.6-.65-.77-.62-.89s.68-.18,1.18.63a1.75,1.75,0,0,1,.08,1.6,1.8,1.8,0,0,1-3.3-.42,1.73,1.73,0,0,1,.48-1.52C439.93,97,440.6,97.21,440.54,97.31Z" style="fill:#e0e0e0"></path><path d="M437.85,76.06c0,.13-.48.17-.82.72a1,1,0,1,0,1.7.21c-.19-.61-.64-.77-.61-.9s.68-.18,1.17.64a1.7,1.7,0,0,1,.09,1.59,1.8,1.8,0,0,1-3.3-.41,1.75,1.75,0,0,1,.48-1.53C437.23,75.72,437.9,76,437.85,76.06Z" style="fill:#e0e0e0"></path><path d="M425.32,52.36c0,.13-.48.17-.81.72a1,1,0,1,0,1.7.21c-.2-.61-.65-.78-.62-.9s.68-.18,1.18.64a1.73,1.73,0,0,1,.08,1.59,1.8,1.8,0,0,1-3.3-.41,1.75,1.75,0,0,1,.48-1.53C424.71,52,425.38,52.26,425.32,52.36Z" style="fill:#e0e0e0"></path><path d="M405.82,41.54c0,.13-.48.18-.82.72a1,1,0,1,0,1.7.21c-.19-.61-.64-.77-.61-.9s.68-.18,1.17.64a1.74,1.74,0,1,1-2.74-.34C405.2,41.2,405.87,41.44,405.82,41.54Z" style="fill:#e0e0e0"></path><path d="M380.39,39.26c0,.13-.48.18-.82.72a1,1,0,1,0,1.7.22c-.19-.61-.64-.78-.61-.9s.68-.18,1.17.63a1.75,1.75,0,0,1,.09,1.6,1.8,1.8,0,0,1-3.3-.41,1.76,1.76,0,0,1,.47-1.53C379.77,38.92,380.44,39.16,380.39,39.26Z" style="fill:#e0e0e0"></path><path d="M430.71,120.14c0,.13-.48.17-.81.72a1,1,0,1,0,1.7.21c-.2-.61-.65-.77-.62-.9s.68-.18,1.18.64a1.74,1.74,0,1,1-2.74-.35C430.1,119.8,430.77,120,430.71,120.14Z" style="fill:#e0e0e0"></path><path d="M344,80.07a6.6,6.6,0,0,1-1.25.06,13.53,13.53,0,0,1-3.52-.65,15,15,0,0,1-4.94-2.82,13.38,13.38,0,0,1-3.76-15.36,14,14,0,0,1,7-7.72A14.52,14.52,0,0,1,349,53.4a13.74,13.74,0,0,1,5.1,3.54,7.13,7.13,0,0,1,1.68,2.81,3.75,3.75,0,0,1-.58,3.38,3.13,3.13,0,0,1-3.3,1A9.21,9.21,0,0,1,349,62.7a13.61,13.61,0,0,1-4.24-4.54,14,14,0,0,1-1.41-11.4,14.13,14.13,0,0,1,6.83-7.88,13.34,13.34,0,0,1,9-1.38,13.7,13.7,0,0,1,6.63,3.56A14.55,14.55,0,0,1,369,45.72a12.85,12.85,0,0,1,.94,3.46,7.36,7.36,0,0,1,0,1.25,17.23,17.23,0,0,0-1.29-4.57,14.8,14.8,0,0,0-3.28-4.45,13.4,13.4,0,0,0-6.42-3.3,12.76,12.76,0,0,0-8.53,1.41A13.46,13.46,0,0,0,344.07,47a13.33,13.33,0,0,0,1.38,10.72,13,13,0,0,0,4,4.25,8.71,8.71,0,0,0,2.65,1.26,2.27,2.27,0,0,0,2.42-.65,2.92,2.92,0,0,0,.42-2.6,6.21,6.21,0,0,0-1.49-2.47,12.85,12.85,0,0,0-4.78-3.33,13.74,13.74,0,0,0-10.83.12,13.27,13.27,0,0,0-3.26,22,15,15,0,0,0,4.73,2.86A17.78,17.78,0,0,0,344,80.07Z" style="fill:#e0e0e0"></path><path d="M353.33,119.16a5.56,5.56,0,0,1-.66,1.06,13.56,13.56,0,0,1-2.54,2.53,14.92,14.92,0,0,1-5.14,2.44,13.39,13.39,0,0,1-14.76-5.67,14,14,0,0,1-2.34-10.16,14.51,14.51,0,0,1,6.41-9.54,13.87,13.87,0,0,1,5.82-2.18,7.17,7.17,0,0,1,3.27.23,3.77,3.77,0,0,1,2.44,2.4,3.14,3.14,0,0,1-1.09,3.26,9.21,9.21,0,0,1-2.82,1.62,13.72,13.72,0,0,1-6.15.89A13.48,13.48,0,0,1,323,90.59a13.33,13.33,0,0,1,4-8.17,13.74,13.74,0,0,1,6.7-3.42,14.66,14.66,0,0,1,5.69,0,13.16,13.16,0,0,1,3.38,1.21,6.21,6.21,0,0,1,1.05.68,16.92,16.92,0,0,0-4.5-1.55,14.51,14.51,0,0,0-5.52.16,13.3,13.3,0,0,0-6.37,3.38,12.82,12.82,0,0,0-3.71,7.82,13.43,13.43,0,0,0,2.5,9.53,13.27,13.27,0,0,0,9.59,5,12.83,12.83,0,0,0,5.76-.85,8.41,8.41,0,0,0,2.55-1.45,2.25,2.25,0,0,0,.84-2.36,2.92,2.92,0,0,0-1.89-1.84,6.32,6.32,0,0,0-2.88-.18,12.78,12.78,0,0,0-5.45,2,13.71,13.71,0,0,0-6.09,9,13.75,13.75,0,0,0,9,15,13.58,13.58,0,0,0,7.22.27,15,15,0,0,0,5.05-2.25A17.39,17.39,0,0,0,353.33,119.16Z" style="fill:#e0e0e0"></path><path d="M389.1,136.93a4.53,4.53,0,0,1,.49,1.1,12.27,12.27,0,0,1,.65,3.41,13.53,13.53,0,0,1-.87,5.43,12.34,12.34,0,0,1-4.45,5.75,13.39,13.39,0,0,1-8.55,2.15,14.26,14.26,0,0,1-13.47-14.38,12.44,12.44,0,0,1,1.41-5.86,6.48,6.48,0,0,1,2-2.45,3.69,3.69,0,0,1,3.29-.5,3.19,3.19,0,0,1,2.05,2.62,8.45,8.45,0,0,1-.2,3.15,12.29,12.29,0,0,1-2.74,5.36,13,13,0,0,1-10.1,4.6,14.77,14.77,0,0,1-9.34-3.85,13.8,13.8,0,0,1-4.46-7.61,12.68,12.68,0,0,1,.79-7.24,13.13,13.13,0,0,1,3.16-4.5,12.19,12.19,0,0,1,2.89-1.93,5.85,5.85,0,0,1,1.14-.4,15.26,15.26,0,0,0-3.8,2.58,13.18,13.18,0,0,0-2.94,4.44,12.33,12.33,0,0,0-.63,6.93,13.17,13.17,0,0,0,4.33,7.18,14,14,0,0,0,8.87,3.59,12.21,12.21,0,0,0,9.44-4.34,11.55,11.55,0,0,0,2.54-5,7.68,7.68,0,0,0,.19-2.81,2.32,2.32,0,0,0-1.48-1.95,2.82,2.82,0,0,0-2.51.4,5.66,5.66,0,0,0-1.74,2.14,11.51,11.51,0,0,0-1.32,5.45,13.69,13.69,0,0,0,3.95,9.72,13.92,13.92,0,0,0,8.72,3.94,12.8,12.8,0,0,0,8.14-1.94,11.91,11.91,0,0,0,4.35-5.42,13.57,13.57,0,0,0,1-5.24A17.13,17.13,0,0,0,389.1,136.93Z" style="fill:#e0e0e0"></path><path d="M339.5,68.93c0-.13.51,0,1-.42a1,1,0,1,0-1.54-.75c0,.64.36.94.29,1s-.7,0-.9-1a1.72,1.72,0,0,1,.43-1.54,1.8,1.8,0,0,1,3,1.45,1.72,1.72,0,0,1-.94,1.29C340,69.45,339.41,69,339.5,68.93Z" style="fill:#e0e0e0"></path><path d="M335.22,89.92c0-.12.51,0,1-.42a1,1,0,1,0-1.54-.75c0,.64.36.94.29,1s-.7,0-.91-1A1.64,1.64,0,0,1,336.48,87a1.7,1.7,0,0,1,1,1.72,1.72,1.72,0,0,1-.94,1.29C335.7,90.44,335.14,90,335.22,89.92Z" style="fill:#e0e0e0"></path><path d="M339.48,116.39c0-.12.51,0,1-.42a1,1,0,1,0-1.54-.75c0,.64.37.94.3,1s-.71,0-.91-1a1.75,1.75,0,0,1,.43-1.54,1.74,1.74,0,1,1,2.05,2.74C340,116.91,339.4,116.47,339.48,116.39Z" style="fill:#e0e0e0"></path><path d="M354.48,132.89c0-.12.51,0,1-.42a1,1,0,1,0-1.54-.74c0,.63.37.94.29,1s-.7,0-.9-1a1.72,1.72,0,1,1,3.42-.08,1.74,1.74,0,0,1-.94,1.29C355,133.41,354.4,133,354.48,132.89Z" style="fill:#e0e0e0"></path><path d="M377.83,143.21c0-.12.51,0,1-.42a1,1,0,1,0-1.55-.75c0,.64.37.94.3,1.05s-.7-.05-.91-1a1.72,1.72,0,1,1,3.42-.08,1.76,1.76,0,0,1-.94,1.29C378.31,143.73,377.75,143.29,377.83,143.21Z" style="fill:#e0e0e0"></path><path d="M398.3,144.28c0-.12.51,0,1-.42a1,1,0,1,0-1.54-.74c0,.63.37.94.29,1s-.7,0-.9-1a1.74,1.74,0,0,1,.43-1.54,1.8,1.8,0,0,1,3,1.45,1.74,1.74,0,0,1-.94,1.29C398.77,144.8,398.22,144.36,398.3,144.28Z" style="fill:#e0e0e0"></path><path d="M416.45,135.35c0-.12.51,0,1-.42a1,1,0,1,0-1.54-.75c0,.64.36.94.29,1s-.7,0-.9-1a1.72,1.72,0,1,1,3.42-.08,1.76,1.76,0,0,1-.94,1.29C416.92,135.87,416.37,135.43,416.45,135.35Z" style="fill:#e0e0e0"></path><path d="M356.13,50.46c0-.12.52,0,1-.42a1,1,0,1,0-1.54-.74c0,.63.36.94.29,1.05s-.7-.05-.91-1a1.75,1.75,0,0,1,.43-1.54,1.81,1.81,0,0,1,3,1.45,1.77,1.77,0,0,1-.94,1.29C356.61,51,356.05,50.54,356.13,50.46Z" style="fill:#e0e0e0"></path><path d="M418.19,126a5,5,0,0,1,.76.77,16.84,16.84,0,0,1,1.77,2.54A18.52,18.52,0,0,1,423,140.34a12.74,12.74,0,0,1-3,7.32,6.8,6.8,0,0,1-4,2.11,8.8,8.8,0,0,1-4.72-.71C408.26,147.7,406,145,404,142.2a7.19,7.19,0,0,1-1.52-5.21,4.21,4.21,0,0,1,1.37-2.58,4.15,4.15,0,0,1,2.83-.91,8,8,0,0,1,5.1,2.32,10.33,10.33,0,0,1,2.74,4.66,9.78,9.78,0,0,1,0,5.23,11,11,0,0,1-2.46,4.35,11.45,11.45,0,0,1-8.22,3.75,13.24,13.24,0,0,1-7.57-2.26,13.54,13.54,0,0,1-4.38-4.83,15.21,15.21,0,0,1-1.65-4.63A14.45,14.45,0,0,1,390,139a4.53,4.53,0,0,1,.1-1.07,29.39,29.39,0,0,0,.49,4.09,15.6,15.6,0,0,0,1.74,4.46,13.26,13.26,0,0,0,4.3,4.55,12.65,12.65,0,0,0,7.21,2.05,10.74,10.74,0,0,0,7.64-3.56,9.2,9.2,0,0,0,2.21-8.81,9.35,9.35,0,0,0-2.52-4.26,7.17,7.17,0,0,0-4.51-2.08,3.27,3.27,0,0,0-2.24.7,3.44,3.44,0,0,0-1.09,2.06,6.44,6.44,0,0,0,1.38,4.59c2,2.73,4.14,5.35,6.94,6.6a8.07,8.07,0,0,0,4.29.69,6.07,6.07,0,0,0,3.57-1.85,12.14,12.14,0,0,0,2.88-6.9,18.67,18.67,0,0,0-2-10.82A34.24,34.24,0,0,0,418.19,126Z" style="fill:#e0e0e0"></path><path d="M453.25,92s0-.36-.09-1.06-.12-1.75-.2-3.09c0-.68-.09-1.44-.14-2.28s-.27-1.73-.41-2.72-.33-2-.51-3.17a34.78,34.78,0,0,0-.85-3.55,62.39,62.39,0,0,0-7.21-17.28,64.91,64.91,0,0,0-16.5-18.39l-2.81-2.09c-1-.64-2-1.23-3-1.87a36.09,36.09,0,0,0-3.16-1.82L415,33l-1.71-.81-1.8-.65-3.65-1.33c-1.24-.41-2.53-.67-3.81-1a34,34,0,0,0-3.93-.89,60.7,60.7,0,0,0-8.19-.95c-1.39,0-2.8-.18-4.22-.16l-4.28.22c-.72,0-1.45,0-2.17.14l-2.16.34c-1.44.24-2.9.41-4.35.71a70.52,70.52,0,0,0-17.08,6.24c-1.37.74-2.68,1.61-4,2.41-.66.42-1.37.78-2,1.26L349.67,40a74.31,74.31,0,0,0-7.34,6.24,75.18,75.18,0,0,0-6.34,7.5l-1.49,2-1.3,2.13L331.9,60a16.17,16.17,0,0,0-1.21,2.2l-2.2,4.57q-.87,2.39-1.75,4.79A69.08,69.08,0,0,0,323.4,92a69.07,69.07,0,0,0,3.33,20.42c.59,1.61,1.18,3.2,1.76,4.8.74,1.52,1.47,3,2.2,4.56l.55,1.13.65,1.08,1.3,2.14,1.31,2.13,1.49,2a72.6,72.6,0,0,0,6.34,7.5,71.69,71.69,0,0,0,7.34,6.24l1.91,1.43c.63.48,1.34.84,2,1.26,1.35.81,2.66,1.67,4,2.41a67.42,67.42,0,0,0,8.44,3.71,68.5,68.5,0,0,0,8.64,2.54c1.45.3,2.91.47,4.35.71l2.16.33c.72.09,1.45.09,2.17.14l4.28.22c1.42,0,2.83-.11,4.23-.16a61.07,61.07,0,0,0,8.19-1,32.26,32.26,0,0,0,3.92-.89c1.28-.34,2.58-.61,3.82-1l3.64-1.33c.61-.21,1.2-.43,1.8-.65l1.71-.81,3.37-1.61c1.12-.51,2.11-1.24,3.16-1.83s2.06-1.22,3.05-1.87l2.8-2.09a64.6,64.6,0,0,0,16.5-18.39,62.08,62.08,0,0,0,7.21-17.28,32.32,32.32,0,0,0,.85-3.55c.18-1.13.35-2.19.51-3.17s.32-1.89.41-2.72.1-1.6.14-2.28c.08-1.33.15-2.36.2-3.09s.09-1,.09-1,0,.35,0,1-.07,1.76-.12,3.1c0,.69-.06,1.45-.09,2.29s-.24,1.75-.37,2.74-.3,2-.47,3.19a34.64,34.64,0,0,1-.82,3.57,61.8,61.8,0,0,1-7.12,17.45A65,65,0,0,1,427.72,144l-2.83,2.12c-1,.66-2,1.26-3.07,1.9s-2.05,1.34-3.18,1.86l-3.4,1.64-1.72.83-1.82.67L408,154.36c-1.25.42-2.56.69-3.86,1a32.5,32.5,0,0,1-4,.9,60.62,60.62,0,0,1-8.28,1c-1.41,0-2.84.19-4.27.17l-4.34-.21c-.72,0-1.46,0-2.19-.14l-2.18-.33c-1.46-.24-2.95-.41-4.41-.71a68,68,0,0,1-8.75-2.55,69.18,69.18,0,0,1-8.56-3.74c-1.38-.75-2.71-1.62-4.08-2.44-.68-.42-1.39-.79-2-1.27l-1.93-1.45a72.52,72.52,0,0,1-7.45-6.31,73.53,73.53,0,0,1-6.43-7.6l-1.51-2-1.33-2.15-1.32-2.17-.66-1.09-.56-1.15-2.23-4.63q-.88-2.42-1.78-4.85A70.32,70.32,0,0,1,322.52,92a70.15,70.15,0,0,1,3.39-20.69c.6-1.63,1.19-3.25,1.79-4.86s1.49-3.09,2.23-4.62a15.64,15.64,0,0,1,1.22-2.24l1.32-2.17,1.32-2.16,1.51-2a74.79,74.79,0,0,1,6.43-7.6,74.92,74.92,0,0,1,7.45-6.31l1.93-1.44c.64-.49,1.36-.85,2-1.28,1.37-.81,2.7-1.68,4.08-2.43a69.26,69.26,0,0,1,8.56-3.75,70,70,0,0,1,8.74-2.55c1.47-.3,3-.47,4.41-.7l2.19-.33c.73-.1,1.46-.09,2.19-.14l4.34-.22c1.43,0,2.85.13,4.27.18a60.8,60.8,0,0,1,8.28,1,33,33,0,0,1,4,.91c1.3.35,2.6.63,3.86,1l3.68,1.36,1.81.66,1.73.83,3.39,1.64c1.13.52,2.13,1.25,3.19,1.86s2.08,1.24,3.07,1.9l2.82,2.12a65.18,65.18,0,0,1,16.55,18.63A61.8,61.8,0,0,1,451.38,76a34.21,34.21,0,0,1,.82,3.58c.16,1.13.32,2.2.46,3.19s.3,1.89.38,2.73.06,1.6.09,2.29c.05,1.34.09,2.37.12,3.1S453.25,92,453.25,92Z" style="fill:#e0e0e0"></path><circle cx="388.11" cy="90.55" r="43.65" transform="translate(49.64 300.96) rotate(-45)" style="fill:#fafafa"></circle><path d="M431.76,90.55a5.61,5.61,0,0,1-.08-.7q-.06-.76-.15-2.07c0-.46-.06-1-.1-1.53s-.18-1.16-.28-1.82a31,31,0,0,0-.92-4.49,41.73,41.73,0,0,0-4.85-11.55,43.29,43.29,0,0,0-52-18.46,47.58,47.58,0,0,0-5.64,2.48,45.87,45.87,0,0,0-5.3,3.41A49.45,49.45,0,0,0,357.53,60a49.76,49.76,0,0,0-4.23,5,42.14,42.14,0,0,0-6.18,11.91,46.43,46.43,0,0,0-2.23,13.64,46.11,46.11,0,0,0,2.23,13.64,41.88,41.88,0,0,0,6.18,11.91,48.68,48.68,0,0,0,4.23,5,46.9,46.9,0,0,0,4.91,4.17,43.35,43.35,0,0,0,5.3,3.41,44.53,44.53,0,0,0,5.64,2.48,43.42,43.42,0,0,0,52-18.45,41.85,41.85,0,0,0,4.85-11.55,31.06,31.06,0,0,0,.92-4.5c.1-.65.22-1.26.28-1.82s.07-1.06.1-1.52c.06-.88.11-1.56.15-2.07a5.65,5.65,0,0,1,.08-.71,3.47,3.47,0,0,1,0,.71c0,.51,0,1.2-.06,2.08q0,.69-.06,1.53c0,.57-.15,1.18-.24,1.84a30.53,30.53,0,0,1-.85,4.54A41.16,41.16,0,0,1,425.8,113a43.89,43.89,0,0,1-29.57,20.82,44.09,44.09,0,0,1-23.13-1.86,40.05,40.05,0,0,1-11.16-6,48.67,48.67,0,0,1-5-4.24,50.57,50.57,0,0,1-4.32-5.1,42.56,42.56,0,0,1-6.32-12.15A47,47,0,0,1,344,90.55a46.85,46.85,0,0,1,2.28-13.91,42.61,42.61,0,0,1,6.31-12.14,49.5,49.5,0,0,1,4.33-5.11,49.85,49.85,0,0,1,5-4.24,47.11,47.11,0,0,1,5.41-3.46,46.15,46.15,0,0,1,5.75-2.51,44.09,44.09,0,0,1,23.13-1.86A43.89,43.89,0,0,1,425.8,68.14a41.22,41.22,0,0,1,4.76,11.71,32.25,32.25,0,0,1,.85,4.55c.09.66.19,1.27.24,1.83s0,1.07.06,1.54c0,.88,0,1.57.06,2.08A3.4,3.4,0,0,1,431.76,90.55Z" style="fill:#e0e0e0"></path><path d="M73.46,388.8a43.15,43.15,0,0,0,43.19,47.09,26.39,26.39,0,0,0,42.57,18.86,28.86,28.86,0,0,0,53.72,10.11,34,34,0,0,0,55.07-.75,43.77,43.77,0,0,0,64.24-5.1c16.7,10.89,41.22,7.45,54.27-7.62A29.59,29.59,0,0,0,429.27,424c15.67-2.87,27.22-19.35,23.6-34.86" style="fill:#f5f5f5"></path></g><g id="freepik--Plant--inject-79"><path d="M401.69,388.79s-11.56-56.46,0-87.84h12.8s9.82,33.09,0,87.84Z" style="fill:#83DB8C"></path><g style="opacity:0.7000000000000001"><path d="M401.69,388.79s-11.56-56.46,0-87.84h12.8s9.82,33.09,0,87.84Z" style="fill:#fff"></path></g><path d="M411.14,271.64a24.38,24.38,0,0,1,20.8-12.08,23.1,23.1,0,0,1-21.6,12.74" style="fill:#455a64"></path><path d="M414.32,248.1a24.39,24.39,0,0,1-5.9-23.32,23.07,23.07,0,0,1,6.31,24.27" style="fill:#455a64"></path><path d="M402.76,248.43a21.28,21.28,0,0,1-13.1-16.69,20.16,20.16,0,0,1,13.78,17.31" style="fill:#455a64"></path><path d="M399.59,223.36a15.56,15.56,0,0,1,4.65-14.76A14.71,14.71,0,0,1,399.5,224" style="fill:#455a64"></path><path d="M408.51,293.68a15.51,15.51,0,0,1,9-12.59,14.7,14.7,0,0,1-9.29,13.19" style="fill:#455a64"></path><path d="M394.53,199.73s2.31,8.65,5,22.86c.33,1.78.68,3.64,1,5.58s.65,4,1,6.07c.71,4.19,1.29,8.7,1.94,13.44,1.18,9.48,2.2,19.95,2.83,31s.7,21.54.57,31.1c-.13,4.78-.21,9.32-.47,13.57-.11,2.12-.18,4.17-.32,6.14s-.28,3.86-.42,5.66c-1.13,14.42-2.48,23.27-2.48,23.27s0-.14,0-.41.07-.69.12-1.21c.12-1.08.28-2.63.5-4.63.11-1,.23-2.12.37-3.34l.36-4c.25-2.86.59-6.11.8-9.72q.18-2.7.38-5.66c.13-2,.2-4,.3-6.14.24-4.24.31-8.78.43-13.56.11-9.55,0-20.06-.61-31.07s-1.63-21.46-2.79-30.94c-.63-4.74-1.2-9.24-1.9-13.43-.34-2.1-.62-4.13-1-6.07s-.68-3.81-1-5.58c-.6-3.57-1.29-6.76-1.85-9.58-.29-1.4-.55-2.71-.8-3.92s-.51-2.29-.73-3.28c-.43-2-.77-3.49-1-4.55l-.25-1.18C394.55,199.87,394.53,199.73,394.53,199.73Z" style="fill:#263238"></path><path d="M423,220.31a2.52,2.52,0,0,1-.08.31c-.07.22-.16.5-.27.87-.26.79-.63,1.92-1.09,3.35l-.79,2.41c-.27.9-.56,1.86-.88,2.9-.61,2.08-1.37,4.43-2.05,7.08-.35,1.32-.73,2.7-1.11,4.14s-.73,2.95-1.11,4.51c-.79,3.11-1.47,6.48-2.21,10-1.39,7.08-2.67,14.92-3.6,23.2s-1.35,16.22-1.54,23.44c0,3.61-.11,7,0,10.25,0,1.6,0,3.15.1,4.64s.13,2.92.19,4.28c.08,2.73.31,5.2.46,7.36.07,1.08.15,2.09.22,3s.17,1.76.25,2.53c.14,1.5.25,2.67.33,3.5,0,.38.05.68.07.91a1,1,0,0,1,0,.31,1.53,1.53,0,0,1,0-.3l-.12-.91-.42-3.5c-.08-.76-.18-1.6-.29-2.52s-.16-1.94-.25-3c-.17-2.16-.42-4.63-.53-7.36-.07-1.36-.14-2.8-.22-4.29s-.08-3-.12-4.65c-.11-3.21,0-6.65,0-10.26.16-7.23.61-15.18,1.5-23.48s2.23-16.14,3.64-23.23c.76-3.54,1.45-6.9,2.26-10,.39-1.56.74-3.07,1.13-4.51s.78-2.82,1.15-4.14c.7-2.64,1.48-5,2.11-7.06l.91-2.89c.31-.88.58-1.68.84-2.41.49-1.42.88-2.53,1.16-3.32.13-.36.24-.64.31-.86A1.88,1.88,0,0,1,423,220.31Z" style="fill:#263238"></path><path d="M421.08,226.7c-2.81-2.37-3-6.78-1.6-10.18s4-6.14,6.15-9.11,4-6.51,3.51-10.15a7.9,7.9,0,0,1-.18-2.6c.19-.85,1-1.65,1.87-1.4s1,1.1,1.19,1.86a25.17,25.17,0,0,1,.43,7.14,9.89,9.89,0,0,1,6.43-5.8,8.5,8.5,0,0,1-2.3,7.86c1.86-.77,3.85-1.56,5.83-1.18s3.75,2.49,3,4.36c-.84,2.13-3.75,2.17-6,2.58a10.88,10.88,0,0,0-6.43,3.78c-2,2.49-2.86,5.74-4.51,8.5s-4.82,5.16-7.88,4.17" style="fill:#83DB8C"></path><path d="M396.94,209.26c3.12-1.94,3.91-6.28,3-9.85s-3.08-6.64-4.81-9.88-3.06-7-2-10.54a7.87,7.87,0,0,0,.54-2.55c-.06-.87-.79-1.79-1.65-1.65s-1.18,1-1.44,1.67a25.2,25.2,0,0,0-1.43,7,9.85,9.85,0,0,0-5.55-6.64,8.52,8.52,0,0,0,1.17,8.11c-1.73-1-3.59-2.09-5.61-2s-4.05,1.93-3.58,3.89c.54,2.23,3.41,2.68,5.58,3.4a10.81,10.81,0,0,1,5.84,4.65c1.67,2.74,2,6.08,3.27,9s4.05,5.79,7.21,5.24" style="fill:#83DB8C"></path><path d="M393.27,251.71a3.29,3.29,0,0,1,.32.56l.83,1.63c.36.71.79,1.59,1.24,2.62s1,2.2,1.55,3.52,1.14,2.75,1.71,4.33,1.17,3.26,1.78,5c1.15,3.59,2.28,7.58,3.23,11.82s1.59,8.34,2.06,12.08c.2,1.87.41,3.65.52,5.32s.21,3.23.27,4.65.07,2.71.09,3.84,0,2.11,0,2.9,0,1.37-.06,1.83a4.6,4.6,0,0,1,0,.64,2.89,2.89,0,0,1,0-.64c0-.46,0-1.07,0-1.83s0-1.77-.05-2.89-.05-2.42-.15-3.83-.17-3-.33-4.64-.35-3.44-.56-5.3c-.49-3.72-1.16-7.8-2.09-12s-2.06-8.21-3.18-11.79c-.6-1.78-1.14-3.48-1.73-5s-1.13-3-1.66-4.34-1-2.5-1.48-3.54-.84-1.92-1.18-2.64l-.75-1.67A4.09,4.09,0,0,1,393.27,251.71Z" style="fill:#263238"></path><path d="M395.4,260c1.55-1.26,1.68-3.66,1-5.53a25.37,25.37,0,0,0-3.27-5c-1.16-1.63-2.13-3.58-1.83-5.56a4,4,0,0,0,.12-1.41c-.09-.47-.55-.91-1-.78s-.58.59-.67,1a13.73,13.73,0,0,0-.29,3.89,5.39,5.39,0,0,0-3.45-3.22,4.63,4.63,0,0,0,1.18,4.31A5.69,5.69,0,0,0,384,247c-1.07.19-2.06,1.32-1.67,2.35s2,1.21,3.25,1.45a6,6,0,0,1,3.47,2.12c1.09,1.37,1.51,3.15,2.38,4.67s2.58,2.85,4.26,2.34" style="fill:#83DB8C"></path></g><g id="freepik--Desk--inject-79"><path d="M469.29,388.79c0,.15-99.28.27-221.72.27s-221.74-.12-221.74-.27,99.26-.26,221.74-.26S469.29,388.65,469.29,388.79Z" style="fill:#263238"></path></g><g id="freepik--Letter--inject-79"><polygon points="232.02 434.81 226.82 440.4 397.85 443.34 393.54 408.54 245.16 419.68 232.02 434.81" style="fill:#e0e0e0"></polygon><path d="M260.72,393.31l-35.65,41.35s130,2.84,159,2.65c3.39,0,16,0,18.32-5.91h0l-10.73-38.35Z" style="fill:#fafafa"></path><path d="M260.72,393.31l.62,0,1.85,0,7.18,0,27-.12,94.24-.3h.19l.05.18c3.39,12.12,7,25,10.74,38.35l0,.09,0,.08a7.13,7.13,0,0,1-2.55,3,14.2,14.2,0,0,1-3.56,1.64,35.48,35.48,0,0,1-7.76,1.31c-2.64.19-5.3.14-8,.15l-8.05,0c-29.25-.27-57-.83-82.07-1.31l-65.58-1.39h-.38l.25-.29,26.25-30.3,7.08-8.14,1.83-2.09.63-.7s-.2.26-.61.75l-1.81,2.13-7,8.21L225.2,434.77l-.13-.29,65.58,1.28c25,.45,52.82,1,82.06,1.25l8.05,0c2.67,0,5.33,0,7.94-.15a34.67,34.67,0,0,0,7.64-1.28,14.2,14.2,0,0,0,3.42-1.58,6.54,6.54,0,0,0,2.36-2.73v.16c-3.73-13.34-7.33-26.24-10.71-38.36l.23.18-94.15.09H270.43l-7.21,0-1.86,0C260.94,393.33,260.72,393.31,260.72,393.31Z" style="fill:#263238"></path><path d="M296.31,424.77a4.93,4.93,0,0,1,.12-1.26,15.51,15.51,0,0,1,1-3.3,16.45,16.45,0,0,1,2.67-4.35c.62-.74,1.45-1.41,1.1-2.35a14.8,14.8,0,0,0-.61-1.42,2.87,2.87,0,0,1-.24-.86,1.32,1.32,0,0,1,.3-1c.47-.52,1.08-.57,1.43-.85a2.13,2.13,0,0,0,.74-1.16c.27-.95.5-1.94.74-2.84a15.16,15.16,0,0,1,.81-2.6,3.56,3.56,0,0,1,.74-1.05,2,2,0,0,1,1.12-.51l-.1.33a2.15,2.15,0,0,1-.68-2,2.55,2.55,0,0,1,.65-1.41,1.84,1.84,0,0,1,.83-.52.88.88,0,0,1,.34,0,2.25,2.25,0,0,0-1.53,2,1.87,1.87,0,0,0,.62,1.63l.36.28-.45.05a2.07,2.07,0,0,0-1.51,1.38,14.6,14.6,0,0,0-.73,2.53c-.23.92-.44,1.86-.73,2.88a2.65,2.65,0,0,1-.92,1.43c-.51.34-1.07.43-1.33.76s-.19.79,0,1.27a13.43,13.43,0,0,1,.63,1.48,2.53,2.53,0,0,1,.07.87,2,2,0,0,1-.33.79,13,13,0,0,1-1,1.14,17,17,0,0,0-2.69,4.19A27.93,27.93,0,0,0,296.31,424.77Z" style="fill:#263238"></path><path d="M314,397.73a4.37,4.37,0,0,1-.16,1.14c-.14.73-.35,1.79-.64,3.08a67.12,67.12,0,0,1-2.95,10c-1.47,3.82-3.56,6.89-4.67,9.28a31,31,0,0,0-1.51,4,3.53,3.53,0,0,1,.16-1.15,16.29,16.29,0,0,1,1-3c1-2.47,3.07-5.55,4.51-9.31a86.22,86.22,0,0,0,3.08-9.86l.81-3A5,5,0,0,1,314,397.73Z" style="fill:#263238"></path><path d="M321.61,396.27a4.7,4.7,0,0,1-.36,1.19l-1.15,3.19c-1,2.69-2.3,6.41-3.7,10.54s-2.62,7.77-3.56,10.59c-.45,1.27-.82,2.34-1.12,3.2a6.08,6.08,0,0,1-.47,1.15,5.63,5.63,0,0,1,.28-1.22c.21-.77.54-1.88,1-3.25.84-2.73,2-6.51,3.43-10.64s2.78-7.84,3.84-10.5c.54-1.33,1-2.4,1.31-3.13A7,7,0,0,1,321.61,396.27Z" style="fill:#263238"></path><path d="M327,398.52a6,6,0,0,1-.06,1.2c-.08.77-.2,1.88-.47,3.24a17.07,17.07,0,0,1-.57,2.2c-.24.79-.62,1.58-.88,2.42a4.44,4.44,0,0,0-.22,1.31,8.14,8.14,0,0,0,.18,1.4,3.38,3.38,0,0,1,0,1.61,3.68,3.68,0,0,1-.92,1.39c-.74.76-1.64,1.37-1.9,2.2a2,2,0,0,0,.12,1.28,3,3,0,0,1,.12,1.49,14,14,0,0,1-.87,2.48l-.87,2.08c-.51,1.19-.93,2.19-1.28,3a4.7,4.7,0,0,1-.54,1.08,5.89,5.89,0,0,1,.35-1.15l1.13-3.06.81-2.11a14.58,14.58,0,0,0,.8-2.39,2.43,2.43,0,0,0-.13-1.27,2.5,2.5,0,0,1-.13-1.57,6.77,6.77,0,0,1,2-2.42,3.3,3.3,0,0,0,.79-1.19,2.75,2.75,0,0,0,0-1.37,8,8,0,0,1-.18-1.49,5.17,5.17,0,0,1,.26-1.44c.3-.89.68-1.66.93-2.42a17.79,17.79,0,0,0,.62-2.14C326.66,400.21,326.85,398.5,327,398.52Z" style="fill:#263238"></path><path d="M327.31,429.45a4.93,4.93,0,0,1-.27-1.24,13.63,13.63,0,0,1,0-3.46,14,14,0,0,1,1.6-4.89,15.44,15.44,0,0,0,1.39-2.59c.31-.92-.26-1.91-.3-3.11a10.9,10.9,0,0,1,.67-3.23c.27-1,.53-2,.79-2.89.48-1.83.92-3.49,1.3-4.92s.68-2.43.92-3.31a5.49,5.49,0,0,1,.41-1.2,6.09,6.09,0,0,1-.21,1.24c-.2.9-.46,2-.76,3.36s-.72,3.09-1.2,5c-.24.93-.5,1.91-.77,2.92a11.19,11.19,0,0,0-.63,3.07,7.4,7.4,0,0,0,.27,1.56,3.34,3.34,0,0,1,0,1.69,14.11,14.11,0,0,1-1.46,2.69,14.32,14.32,0,0,0-1.65,4.71A21.74,21.74,0,0,0,327.31,429.45Z" style="fill:#263238"></path><path d="M334.9,429.32a6.8,6.8,0,0,1,.14-1.26c.15-.9.34-2,.57-3.38l1.95-11.16c.37-2.18.7-4.26,1-6.15s.47-3.57.67-5,.36-2.49.5-3.4a5.93,5.93,0,0,1,.25-1.24,5.24,5.24,0,0,1,0,1.26c-.09.91-.2,2.06-.33,3.42s-.36,3.19-.56,5.07-.58,4-.95,6.17c-.73,4.37-1.51,8.3-2.1,11.14-.29,1.42-.54,2.56-.73,3.35A5.18,5.18,0,0,1,334.9,429.32Z" style="fill:#263238"></path><path d="M342.19,430.51a8.11,8.11,0,0,1,.16-1.35l.62-3.64c.55-3.07,1.33-7.31,2.24-12,.45-2.33.89-4.55,1.28-6.58a11,11,0,0,0,.24-2.85c-.07-.88-.32-1.72-.34-2.54a4,4,0,0,1,1.61-3.32,3.44,3.44,0,0,1,.9-.49,1.12,1.12,0,0,1,.34-.08,8.66,8.66,0,0,0-1.11.73,3.86,3.86,0,0,0-1.37,3.15c0,.75.3,1.56.4,2.51a11.65,11.65,0,0,1-.19,3c-.39,2-.81,4.27-1.25,6.6-.91,4.68-1.75,8.9-2.39,12-.31,1.45-.57,2.66-.78,3.61A6.45,6.45,0,0,1,342.19,430.51Z" style="fill:#263238"></path><path d="M351.81,429.34a1.49,1.49,0,0,0,.79-1,2.87,2.87,0,0,0-.08-1.49,7.64,7.64,0,0,0-1-1.81,3.36,3.36,0,0,1-.6-2.55c.3-1,1.3-1.55,1.85-2.3a1.57,1.57,0,0,0,.3-1.3c-.09-.49-.32-1-.46-1.57a2.21,2.21,0,0,1,.33-1.81c.34-.52.79-.92,1.12-1.37a1.7,1.7,0,0,0,.4-1.42,3.6,3.6,0,0,0-.8-1.34,15.26,15.26,0,0,1-1.05-1.3,2.42,2.42,0,0,1-.48-1.63c.17-1.18,1-1.85,1.26-2.66a4.49,4.49,0,0,0-.09-2.39,9.38,9.38,0,0,1-.38-2.08,3.55,3.55,0,0,1,.31-1.59c.43-.84,1-.92,1-.9a2.41,2.41,0,0,0-.83,1,3.54,3.54,0,0,0-.2,1.5,9.8,9.8,0,0,0,.45,2,4.72,4.72,0,0,1,.14,2.61c-.29,1-1.1,1.67-1.19,2.58s.72,1.71,1.44,2.55a3.77,3.77,0,0,1,.91,1.56,2.22,2.22,0,0,1-.48,1.85c-.38.49-.81.89-1.11,1.33a1.73,1.73,0,0,0-.26,1.43c.11.5.35,1,.45,1.59a2,2,0,0,1-.4,1.66c-.69.87-1.59,1.34-1.82,2.14a3,3,0,0,0,.5,2.25,7.57,7.57,0,0,1,.92,1.91,3,3,0,0,1,0,1.63,1.36,1.36,0,0,1-.64.8A.62.62,0,0,1,351.81,429.34Z" style="fill:#263238"></path><path d="M360,430.1a14.59,14.59,0,0,0,1-4.45,28.23,28.23,0,0,0-.31-5c-.26-1.86-.58-3.93-.75-6.11a62.51,62.51,0,0,1,.09-11.19c.14-1.43.32-2.58.45-3.37a6.11,6.11,0,0,1,.27-1.21,5.28,5.28,0,0,1-.07,1.24c-.07.8-.19,1.94-.28,3.37a74,74,0,0,0,.06,11.12c.17,2.16.47,4.21.7,6.09a25.57,25.57,0,0,1,.2,5.05,10.54,10.54,0,0,1-.77,3.32,5.29,5.29,0,0,1-.41.83C360.08,430,360,430.11,360,430.1Z" style="fill:#263238"></path><path d="M367.67,398.27s.09.08.21.25a4.85,4.85,0,0,1,.41.85,7.88,7.88,0,0,1,.44,3.41,34.55,34.55,0,0,1-.91,5,20.29,20.29,0,0,0-.3,6.1c.17,2.17.51,4.25.75,6.14l.65,5q.22,2,.39,3.39a5.36,5.36,0,0,1,.07,1.25,6.11,6.11,0,0,1-.27-1.22c-.15-.9-.34-2-.56-3.37s-.48-3.15-.76-5-.61-3.95-.79-6.16a20.22,20.22,0,0,1,.35-6.24,41.79,41.79,0,0,0,1-4.92,8.52,8.52,0,0,0-.27-3.33C367.87,398.67,367.63,398.29,367.67,398.27Z" style="fill:#263238"></path><polygon points="279.82 449.25 254.11 476.14 350.35 480.03 366.33 452.37 279.82 449.25" style="fill:#ebebeb"></polygon><path d="M279.82,449.25h.42l1.22,0,4.77.14,17.91.58,62.19,2.14.39,0-.19.33-16,27.67-.07.13h-.15l-7.5-.31-88.74-3.66-.39,0L254,476l18.9-19.64,5.14-5.31,1.34-1.37.46-.45s-.14.18-.44.5l-1.32,1.41L273,456.55l-18.74,19.71-.11-.3,88.74,3.52,7.5.31-.22.12,16-27.66.2.35-62.1-2.33-17.94-.72-4.79-.2-1.24-.07Z" style="fill:#263238"></path><path d="M366.33,452.33c0,.13-10,3-22.45,6.47s-22.54,6.12-22.58,6,10-3,22.45-6.47S366.29,452.2,366.33,452.33Z" style="fill:#263238"></path><path d="M300.29,463.15c-.08.11-4.72-2.91-10.37-6.75s-10.17-7-10.1-7.15,4.72,2.91,10.38,6.75S300.37,463,300.29,463.15Z" style="fill:#263238"></path><path d="M347.75,478.83S317,459.09,311,457.17a47.87,47.87,0,0,0-12.1-2Z" style="opacity:0.30000000000000004"></path><path d="M254.11,476.14S292.94,454,296,454.24,350.35,480,350.35,480Z" style="fill:#f5f5f5"></path><path d="M350.35,480a1.42,1.42,0,0,1-.26-.1l-.74-.35-2.81-1.38-10.33-5.1-15.35-7.53c-5.79-2.8-12.15-5.89-18.93-8.88a53.69,53.69,0,0,0-5.09-2,2.36,2.36,0,0,0-1.21-.15,9.78,9.78,0,0,0-1.24.38c-.82.31-1.63.66-2.42,1-3.18,1.45-6.18,3-9,4.49-5.69,3-10.77,5.77-15,8.12l-10.08,5.58-2.74,1.52-.72.38-.25.12s.07-.07.23-.16l.69-.43,2.7-1.59c2.35-1.37,5.76-3.34,10-5.73s9.31-5.2,15-8.21c2.85-1.5,5.85-3.06,9-4.53.8-.36,1.61-.72,2.45-1a9.22,9.22,0,0,1,1.32-.41,2.89,2.89,0,0,1,1.44.16,52.22,52.22,0,0,1,5.14,2c6.8,3,13.16,6.1,18.94,8.92s11,5.43,15.3,7.63L346.62,478l2.78,1.46.71.39Z" style="fill:#263238"></path></g><g id="freepik--Character--inject-79"><polygon points="303.94 233.74 259.73 208.25 151.83 218.58 149.07 263.57 159.35 386.35 271.04 388.8 312.01 388.8 312.47 374.78 314.97 338.46 303.94 233.74" style="fill:#83DB8C"></polygon><path d="M259.73,208.25s36.46-.35,55.24,25c5.77,7.78,65.38,82.14,63.25,118.2-1,17.21-12.92,37.38-12.92,37.38H311.25L281.5,242.67l-21.77-34.42" style="fill:#83DB8C"></path><path d="M304.12,387a1.24,1.24,0,0,1,.07-.33c.07-.25.16-.56.27-1,.26-.87.63-2.11,1.09-3.69l.8-2.67c.27-1,.5-2.07.78-3.22.52-2.32,1.25-4.92,1.69-7.88l.81-4.63c.27-1.6.4-3.3.62-5,.5-3.48.63-7.24.87-11.18a144.73,144.73,0,0,0-7.21-50.64c-1.32-3.72-2.5-7.29-4-10.49-.7-1.62-1.3-3.21-2-4.68l-2.07-4.21c-1.25-2.72-2.68-5-3.82-7.1-.6-1-1.12-2-1.65-2.87l-1.51-2.34-2.07-3.25c-.22-.35-.4-.63-.53-.85a1.26,1.26,0,0,1-.17-.3,1.92,1.92,0,0,1,.21.27c.15.21.34.48.57.83.52.75,1.24,1.82,2.16,3.19.47.7,1,1.47,1.55,2.32s1.08,1.83,1.69,2.86c1.17,2.07,2.62,4.36,3.9,7.08l2.1,4.21c.72,1.46,1.33,3.06,2,4.67,1.47,3.21,2.67,6.78,4,10.51a143.2,143.2,0,0,1,7.23,50.81c-.25,3.95-.41,7.72-.92,11.21-.23,1.75-.37,3.44-.66,5.06s-.57,3.15-.84,4.62c-.47,3-1.22,5.58-1.77,7.89-.3,1.15-.54,2.24-.82,3.22s-.59,1.85-.84,2.65c-.51,1.57-.91,2.8-1.19,3.68l-.32,1A1.17,1.17,0,0,1,304.12,387Z" style="fill:#263238"></path><g style="opacity:0.30000000000000004"><path d="M311.56,337.35A106.85,106.85,0,0,1,303,388.8l10-.25A90.59,90.59,0,0,0,311.56,337.35Z"></path></g><path d="M288.47,264.11a3.06,3.06,0,0,1-.18.38l-.58,1.09c-.52,1-1.28,2.39-2.25,4.18-2,3.61-4.84,8.85-8.67,15.15a151.6,151.6,0,0,1-15.14,21c-1.62,1.79-3.63,3.61-6.26,4.12a13.26,13.26,0,0,1-7.74-1.19c-2.47-1-4.8-2.41-7.21-3.7l-7.31-4-50.57-27.54-15.29-8.4-4.14-2.31-1.07-.61a1.85,1.85,0,0,1-.36-.23l.38.18,1.1.57,4.19,2.22,15.37,8.25,50.63,27.41,7.32,4c2.41,1.29,4.74,2.66,7.16,3.68a12.81,12.81,0,0,0,7.44,1.18c2.46-.48,4.4-2.2,6-4a153.34,153.34,0,0,0,15.19-20.86c3.87-6.27,6.77-11.48,8.8-15.06,1-1.77,1.79-3.16,2.34-4.13l.62-1.06A2.39,2.39,0,0,1,288.47,264.11Z" style="fill:#fff"></path><path d="M300.05,253.59a63.51,63.51,0,0,1-3.91,7.14,64.34,64.34,0,0,1-4.36,6.87,61.62,61.62,0,0,1,3.91-7.14A63.73,63.73,0,0,1,300.05,253.59Z" style="fill:#fff"></path><path d="M295,279a2.82,2.82,0,0,1-.13.41l-.45,1.18c-.39,1-1,2.54-1.87,4.47a109.37,109.37,0,0,1-8.62,15.58,110.69,110.69,0,0,1-17.12,20.08,47.39,47.39,0,0,1-6,4.78,22.5,22.5,0,0,1-7.33,3.22,21.25,21.25,0,0,1-8.3.09,36.1,36.1,0,0,1-8.11-2.64c-5.25-2.39-10-5.43-14.67-8.12l-13.45-7.88-22.77-13.38-15.33-9.05-4.15-2.49-1.08-.65a1.74,1.74,0,0,1-.35-.24l.38.19,1.1.61,4.2,2.4,15.41,8.92,22.83,13.28,13.47,7.85c4.69,2.68,9.42,5.72,14.62,8.08a35.14,35.14,0,0,0,8,2.61,21,21,0,0,0,8.09-.07,22.28,22.28,0,0,0,7.16-3.15,46.34,46.34,0,0,0,5.95-4.71,112.53,112.53,0,0,0,17.14-19.94A115,115,0,0,0,292.34,285c.87-1.91,1.53-3.4,2-4.42l.5-1.16A2.59,2.59,0,0,1,295,279Z" style="fill:#fff"></path><path d="M304.72,278.15a27.51,27.51,0,0,1-4.62,6,14.27,14.27,0,0,1,2.11-3.18A13.94,13.94,0,0,1,304.72,278.15Z" style="fill:#fff"></path><path d="M263.38,187.57,292.05,184l29.24,20.68s5,36.82,5.93,39.81,9.22,19,9.22,19a11.41,11.41,0,0,0-9.94,2c-4.23,3.17-15.24,13.23-18.72,14.54,0,0-5.4-16.37-5.34-23.32s-1.88-22.85-1.88-22.85l-2.48-10.33-7.66-8.68-10.24-1.14s-2.92,6-7.33,3.09l-4.17-3.8,7.19-5.37s-9,6.4-12.36,1.3l-1.15-2.28,6.56-3.29s-6.09,2.42-7-.8l7.53-8S261.39,192.78,263.38,187.57Z" style="fill:#ffbe9d"></path><path d="M269,194.85s.24-.35.82-.81a11.14,11.14,0,0,1,2.72-1.58c2.48-.94,5.92-2,9.74-3.28s7.23-2.37,9.82-3a3.85,3.85,0,0,1,3.11.52c.62.48.72.93.69.93s-.22-.36-.82-.73a3.75,3.75,0,0,0-2.89-.3c-2.47.74-5.92,2-9.73,3.18l-9.76,3.11A18.36,18.36,0,0,0,269,194.85Z" style="fill:#eb996e"></path><path d="M308.19,204.51a10.74,10.74,0,0,1-1.71-.8c-1.07-.55-2.61-1.39-4.46-2.51s-4-2.52-6.34-4.19c-1.18-.83-2.31-1.81-3.81-1.95a32.14,32.14,0,0,0-4.74-.18,14.69,14.69,0,0,0-4.6.91,27.37,27.37,0,0,0-3.92,2.05c-2.46,1.46-4.66,2.78-6.56,3.83a50.45,50.45,0,0,1-4.58,2.29,13.51,13.51,0,0,1-1.3.5,1.7,1.7,0,0,1-.48.13,15.68,15.68,0,0,1,1.68-.84c1.07-.54,2.61-1.36,4.47-2.46s4-2.44,6.48-3.93a27.75,27.75,0,0,1,4-2.13,14.9,14.9,0,0,1,4.79-1,31,31,0,0,1,4.85.2,5.48,5.48,0,0,1,2.25.81c.66.4,1.23.86,1.81,1.28,2.29,1.68,4.42,3.11,6.24,4.27s3.31,2.06,4.35,2.67A12.47,12.47,0,0,1,308.19,204.51Z" style="fill:#eb996e"></path><path d="M308.85,215.8a6.91,6.91,0,0,1-1.3-.71l-3.4-2.1-5-3.19-2.95-1.9A28.85,28.85,0,0,0,293,206c-2.27-1.1-4.8-.81-7-.47s-4.25.42-5.89.72a14.47,14.47,0,0,0-5,2s.08-.11.27-.27a7.45,7.45,0,0,1,.88-.65,10.89,10.89,0,0,1,3.76-1.49c1.68-.36,3.7-.45,5.88-.85a19.75,19.75,0,0,1,3.53-.34,8.81,8.81,0,0,1,3.78.82,28.29,28.29,0,0,1,3.25,2l2.93,1.93,4.93,3.3,3.3,2.26A6.91,6.91,0,0,1,308.85,215.8Z" style="fill:#eb996e"></path><path d="M331.29,254.51l37.8,68.59A24.53,24.53,0,0,1,363.22,354c-5.13,4.17-12.23,11.32-18.79,11.16C324.66,364.65,315,344,315,344L303.58,264.9Z" style="fill:#ffbe9d"></path><path d="M303.58,254.65c-4.83-1.37-7.56-6.55-8.59-11.47s-.94-10.11-2.81-14.77c-1.65-4.12-4.68-7.49-7.54-10.89a10.71,10.71,0,0,1-2.69-4.67c-.33-1.79.51-3.93,2.26-4.43,1.33-.37,2.72.28,3.92,1a36.91,36.91,0,0,1,16.22,44.15" style="fill:#ffbe9d"></path><path d="M303.58,264.11a2.73,2.73,0,0,1-.15-.62c-.08-.41-.19-1-.31-1.8-.23-1.57-.51-3.84-.7-6.67s-.36-6.19-.65-9.91a57.34,57.34,0,0,0-2-11.93c-.26-1-.66-1.9-1-2.84s-.78-1.81-1.25-2.64a48.62,48.62,0,0,0-3-4.66c-2.1-2.88-3.9-5.69-4.59-8.42l.17.14-7.38-.55-2-.18a3.6,3.6,0,0,1-.7-.1,3.4,3.4,0,0,1,.7,0l2,.07,7.39.39h.13l0,.13c.71,2.64,2.49,5.37,4.61,8.24a46.48,46.48,0,0,1,3.1,4.69c.49.86.85,1.78,1.28,2.7s.74,1.88,1,2.88a56.12,56.12,0,0,1,2,12c.28,3.74.38,7.1.55,9.93s.37,5.09.53,6.67q.14,1.11.21,1.8A2.81,2.81,0,0,1,303.58,264.11Z" style="fill:#eb996e"></path><path d="M261.87,131.66c.14,0-.14,1-1.17,1.71s-2.07.52-2,.39.88-.24,1.75-.83S261.73,131.59,261.87,131.66Z" style="fill:#eb996e"></path><path d="M150.81,117.92c3.74-18.9,10.95-38.32,26.07-50.25C190.35,57,210.39,52.46,227.54,53.13c8.44.32,18,4.19,25.36,8.33C263,67.14,267.3,78.7,272.2,89.2c9.81,21,8.66,49.57,2.08,57.52l-87.89,46.76c-15.61-8.06-32.6-19.07-36.78-36.13C146.77,145.73,148.48,129.65,150.81,117.92Z" style="fill:#e0e0e0"></path><path d="M183.5,83.48,238.85,67c17.84-2.65,30.69,18.91,32.58,36.84,2.11,19.93,3.9,44.34,2.16,59.35-3.49,30.18-26.21,38.12-26.21,38.12s.18,7.7.18,7.7L251,228.2c-12.85,13.55-56.42,6.83-68.77-12.95h0L174.51,94.57A10.55,10.55,0,0,1,183.5,83.48Z" style="fill:#ffbe9d"></path><path d="M262.31,128.36a3.84,3.84,0,0,1-3.54,4,3.68,3.68,0,0,1-4.11-3.3,3.84,3.84,0,0,1,3.54-4A3.67,3.67,0,0,1,262.31,128.36Z" style="fill:#263238"></path><path d="M266.67,116.74c-.45.52-3.46-1.51-7.59-1.32s-7.09,2.38-7.56,1.9c-.23-.22.22-1.15,1.5-2.16a10.52,10.52,0,0,1,6-2.14,10.06,10.06,0,0,1,6.07,1.68C266.43,115.62,266.9,116.51,266.67,116.74Z" style="fill:#263238"></path><path d="M224.76,129.69a3.85,3.85,0,0,1-3.54,4,3.68,3.68,0,0,1-4.11-3.3,3.85,3.85,0,0,1,3.54-4A3.67,3.67,0,0,1,224.76,129.69Z" style="fill:#263238"></path><path d="M226,119.24c-.46.52-3.46-1.51-7.6-1.32s-7.08,2.38-7.55,1.89c-.23-.21.21-1.14,1.5-2.16a10.59,10.59,0,0,1,6-2.14,10.23,10.23,0,0,1,6.07,1.68C225.79,118.12,226.26,119,226,119.24Z" style="fill:#263238"></path><path d="M242.35,149.28c0-.23,2.53-.79,6.67-1.49,1-.16,2-.41,2.19-1.14s-.27-1.89-.84-3.1l-3.46-7.91c-4.82-11.27-8.36-20.56-7.91-20.75s4.74,8.79,9.56,20.06c1.16,2.78,2.28,5.43,3.34,8,.45,1.18,1.19,2.51.72,4.12a2.65,2.65,0,0,1-1.67,1.62,7.22,7.22,0,0,1-1.79.32C245,149.39,242.38,149.52,242.35,149.28Z" style="fill:#263238"></path><path d="M247.46,201.49l.1,7.48c-29.88,4.07-40.7-16.48-40.7-16.48A76.31,76.31,0,0,0,247.46,201.49Z" style="fill:#eb996e"></path><path d="M229,157.58a6.67,6.67,0,0,1,5.4-3.24,8.63,8.63,0,0,1,8,3.57c.74.81.78,3.19.52,3.86s-.05.34-.55.81c-1.78,1.72-3.66,3.43-6,4.1a6.5,6.5,0,0,1-7-2.23A6.64,6.64,0,0,1,229,157.58Z" style="fill:#eb996e"></path><path d="M230.3,152.66c.67-.07.87,4.42,4.85,7.45s8.74,2.33,8.8,2.95c.07.28-1,.92-3,1.06a11.18,11.18,0,0,1-7.33-2.21,9.74,9.74,0,0,1-3.78-6.26C229.54,153.78,230,152.65,230.3,152.66Z" style="fill:#263238"></path><path d="M227.42,105.91c-.36,1.14-4.51.79-9.34,1.58s-8.7,2.28-9.39,1.3c-.3-.47.33-1.56,1.87-2.72a16.48,16.48,0,0,1,14.27-2.19C226.64,104.53,227.58,105.37,227.42,105.91Z" style="fill:#e0e0e0"></path><path d="M264.56,102.51c-.69,1-3.58.11-7,.21s-6.3.9-7,0c-.31-.47.1-1.43,1.33-2.37a10.17,10.17,0,0,1,11.3-.13C264.42,101.08,264.86,102,264.56,102.51Z" style="fill:#e0e0e0"></path><path d="M183.88,130.78c-.42-.18-16.88-4.77-16.14,12s17.39,12.54,17.4,12.06S183.88,130.78,183.88,130.78Z" style="fill:#ffbe9d"></path><path d="M179.74,148.68c-.07-.05-.28.22-.76.47a2.92,2.92,0,0,1-2.18.14c-1.79-.57-3.41-3.31-3.62-6.32a9.58,9.58,0,0,1,.63-4.21,3.37,3.37,0,0,1,2.09-2.34,1.49,1.49,0,0,1,1.76.73c.24.45.15.79.24.82s.35-.3.18-1a1.85,1.85,0,0,0-.7-1,2.23,2.23,0,0,0-1.63-.36,4.1,4.1,0,0,0-2.93,2.73,9.91,9.91,0,0,0-.81,4.71c.26,3.37,2.13,6.45,4.58,7a3.15,3.15,0,0,0,2.64-.56C179.73,149.09,179.8,148.71,179.74,148.68Z" style="fill:#eb996e"></path><path d="M273,108.5c-2.43-4.77-6.94-8.15-11.69-10.63s-9.85-4.23-14.57-6.75A50.37,50.37,0,0,1,223.2,63.78c8.09-4.54,18.36-4.42,26.81-.6s15.11,11,19.23,19.35,5.84,17.65,6.08,26.93" style="fill:#e0e0e0"></path><path d="M178.2,79.18c12-12.19,35.11-19.52,51.44-14.58-1.9,14.17-12,30.37-20.93,41.51s-14,30.46-34.74,24.72c-1.43-.4-3,.94-4.3.24a5.2,5.2,0,0,1-2.08-3A48,48,0,0,1,178.2,79.18Z" style="fill:#e0e0e0"></path><path d="M272.74,128.87a6.13,6.13,0,0,0,2.93-.27,11.46,11.46,0,0,0,6.27-5c1.93-2.9,2.67-7.18,2.12-11.65a42.24,42.24,0,0,0-1.42-6.91,72.78,72.78,0,0,0-16.22-29.62,68,68,0,0,0-5.71-5.62L259,68.46a2.7,2.7,0,0,0-.63-.43,22.68,22.68,0,0,0,2.1,2c1.33,1.33,3.3,3.22,5.48,5.78a78,78,0,0,1,13.51,22.35c.9,2.4,1.73,4.76,2.36,7.09a44.07,44.07,0,0,1,1.45,6.78c.57,4.35-.08,8.45-1.86,11.24a11.48,11.48,0,0,1-5.86,5A14,14,0,0,1,272.74,128.87Z" style="fill:#e0e0e0"></path><path d="M129,82.82c-.22-7.86,1.65-16.07,6.79-22C143,52.56,155.89,50.3,165.72,55s16.06,15.72,15.79,26.63-6.68,21.28-15.92,27.06l-6.93-.53c-6.8,3.89-16,1.63-21.52-3.91S129.26,90.65,129,82.82Z" style="fill:#e0e0e0"></path><path d="M171.06,76.7s.11.21.37.55.64.87,1.21,1.47a30.1,30.1,0,0,0,5.25,4.61,33,33,0,0,0,42.48-3.85A29.77,29.77,0,0,0,224.7,74a17.7,17.7,0,0,0,.93-1.66,2.23,2.23,0,0,0,.27-.61c-.17-.11-1.72,3.28-5.92,7.36A34.38,34.38,0,0,1,211.69,85a32,32,0,0,1-24.26,2.2,34.41,34.41,0,0,1-9.22-4.32A45.2,45.2,0,0,1,171.06,76.7Z" style="fill:#fff"></path><path d="M163.84,99.77s.18.21.58.55a17.22,17.22,0,0,0,1.81,1.42,26.09,26.09,0,0,0,7.6,3.65,33.33,33.33,0,0,0,12.45,1.23A38.37,38.37,0,0,0,201,102.28,48.58,48.58,0,0,0,213,92.86a63.86,63.86,0,0,0,7.62-9.92,74.68,74.68,0,0,0,4.1-7.36c.44-.88.74-1.6,1-2.07a2.83,2.83,0,0,0,.28-.75,2.85,2.85,0,0,0-.42.68l-1.09,2c-.94,1.74-2.35,4.24-4.28,7.19a66.78,66.78,0,0,1-7.68,9.72,49.34,49.34,0,0,1-11.93,9.23,38.45,38.45,0,0,1-14.38,4.31,33.73,33.73,0,0,1-12.22-1,28.42,28.42,0,0,1-7.59-3.37C164.74,100.41,163.89,99.71,163.84,99.77Z" style="fill:#fff"></path><path d="M135.48,75.2s.22.39.75,1a20.07,20.07,0,0,0,2.44,2.37,27.54,27.54,0,0,0,4.17,2.88,31.43,31.43,0,0,0,5.7,2.45,32.26,32.26,0,0,0,6.1,1.19,28.11,28.11,0,0,0,5.06,0,20.84,20.84,0,0,0,3.35-.58,3.58,3.58,0,0,0,1.19-.41c0-.14-1.76.28-4.58.43A31.38,31.38,0,0,1,139,78.14C136.77,76.42,135.58,75.1,135.48,75.2Z" style="fill:#fff"></path><path d="M129.62,85.92a2.34,2.34,0,0,0-.17,1.36,6.47,6.47,0,0,0,1.42,3.47,11.09,11.09,0,0,0,4.53,3.19,33.42,33.42,0,0,0,6.47,1.9,34.26,34.26,0,0,0,12.17.09,26.91,26.91,0,0,0,3.6-.87,4.51,4.51,0,0,0,1.25-.51c0-.14-1.87.44-4.93.83a38,38,0,0,1-12-.31c-4.55-.91-8.77-2.32-10.71-4.67a6.66,6.66,0,0,1-1.54-3.15C129.61,86.41,129.69,85.93,129.62,85.92Z" style="fill:#fff"></path><path d="M230.1,150.06a12.29,12.29,0,0,1-1.75,0,12.39,12.39,0,0,0-4,.83,12,12,0,0,0-3.53,2.15c-.8.71-1.22,1.23-1.29,1.18a3.91,3.91,0,0,1,1-1.44,10.26,10.26,0,0,1,3.59-2.38,10.08,10.08,0,0,1,4.25-.7A3.79,3.79,0,0,1,230.1,150.06Z" style="fill:#eb996e"></path><path d="M219.88,136.15a3.9,3.9,0,0,1-4.85-1,24.34,24.34,0,0,0,2.35.88C218.71,136.29,219.83,136,219.88,136.15Z" style="fill:#eb996e"></path><path d="M195.8,215.25a3.17,3.17,0,0,0,.43-.76,3.34,3.34,0,0,0-.35-2.3c-.23-.44-.56-.92-.87-1.46a4.53,4.53,0,0,1-.7-1.93c-.13-1.6,1.24-2.82,1.39-4.27a3,3,0,0,0-.66-2c-.41-.59-.91-1.13-1.33-1.7a5,5,0,0,1-.28-6,2.1,2.1,0,0,1,.64-.66s-.18.27-.47.77a5.1,5.1,0,0,0-.64,2.3,4.67,4.67,0,0,0,1.13,3.25c.41.54.92,1.06,1.37,1.7a3.54,3.54,0,0,1,.76,2.34,6.41,6.41,0,0,1-.86,2.26,3.63,3.63,0,0,0-.57,1.93c.1,1.29,1,2.29,1.42,3.27a3.33,3.33,0,0,1,.21,2.52C196.16,215.14,195.8,215.27,195.8,215.25Z" style="fill:#eb996e"></path><path d="M202.49,213.7s.11-.26.2-.73a4,4,0,0,0-.18-2c-.23-.84-.78-1.75-1.16-2.91a4.56,4.56,0,0,1-.22-1.94c.1-.68.37-1.31.52-1.94a2,2,0,0,0-.25-1.7,6.22,6.22,0,0,0-1.26-1.25,5.5,5.5,0,0,1-1.2-1.26,3.17,3.17,0,0,1-.47-1.47,3.22,3.22,0,0,1,.57-2.09c.31-.42.56-.56.58-.54s-.18.23-.41.65a3.21,3.21,0,0,0-.37,2,2.88,2.88,0,0,0,.46,1.27,5.59,5.59,0,0,0,1.15,1.12,6.39,6.39,0,0,1,1.37,1.34,2.5,2.5,0,0,1,.33,2.1c-.16.7-.43,1.3-.51,1.89a4,4,0,0,0,.17,1.73c.33,1.09.85,2.05,1.06,3a3.92,3.92,0,0,1,0,2.16C202.73,213.52,202.51,213.72,202.49,213.7Z" style="fill:#eb996e"></path><path d="M151.41,115.62a.7.7,0,0,1,.23.06l.67.22c.59.18,1.42.55,2.55.85a43.08,43.08,0,0,0,9.72,1.72,49.05,49.05,0,0,0,14.54-1.27,55.62,55.62,0,0,0,16.48-6.89,67.72,67.72,0,0,0,13.68-11.55,83.69,83.69,0,0,0,8.87-11.67c2.24-3.53,3.85-6.52,4.91-8.61.54-1,.92-1.86,1.21-2.4l.32-.63a.77.77,0,0,1,.12-.2s0,.08-.07.22l-.28.65c-.25.56-.6,1.4-1.12,2.45a91.11,91.11,0,0,1-4.78,8.71,80.11,80.11,0,0,1-8.83,11.8,66.44,66.44,0,0,1-13.76,11.67,55.52,55.52,0,0,1-16.64,6.92,48.68,48.68,0,0,1-14.68,1.17,41,41,0,0,1-9.75-1.9,26.82,26.82,0,0,1-2.53-.94l-.65-.27C151.48,115.67,151.4,115.63,151.41,115.62Z" style="fill:#263238"></path><path d="M176.09,70.17s-.09.14-.31.36l-1,.93c-.42.4-.93.9-1.5,1.49s-1.26,1.25-1.95,2c-1.42,1.51-3,3.4-4.71,5.57a76.36,76.36,0,0,0-9.14,15.31c-1.11,2.51-2,4.82-2.67,6.79-.36,1-.61,1.88-.86,2.67s-.45,1.47-.6,2l-.37,1.28a1.48,1.48,0,0,1-.17.45,2.22,2.22,0,0,1,.07-.47c.07-.36.16-.79.27-1.31s.29-1.27.52-2.07.45-1.72.79-2.7a70.49,70.49,0,0,1,2.58-6.87,78.48,78.48,0,0,1,4.12-8,76.35,76.35,0,0,1,5.08-7.41,69.09,69.09,0,0,1,4.83-5.53c.71-.77,1.41-1.41,2-2s1.13-1.06,1.58-1.43l1-.87A1.73,1.73,0,0,1,176.09,70.17Z" style="fill:#263238"></path><path d="M273.19,92a3.09,3.09,0,0,1-.56-.1l-1.58-.37c-.68-.15-1.52-.37-2.47-.68s-2.05-.6-3.23-1.06-2.48-.9-3.83-1.51-2.79-1.28-4.28-2a76.12,76.12,0,0,1-9.22-5.7,74,74,0,0,1-8.22-7.06c-1.16-1.2-2.27-2.33-3.22-3.47s-1.84-2.19-2.6-3.19-1.42-1.94-2-2.76-1-1.54-1.4-2.15l-.83-1.39a2.35,2.35,0,0,1-.26-.5s.14.14.35.45l.91,1.33c.38.59.86,1.3,1.47,2.1s1.23,1.73,2,2.69,1.64,2,2.64,3.14S239,72,240.14,73.14a78.61,78.61,0,0,0,8.19,7,79.18,79.18,0,0,0,9.13,5.69c1.48.74,2.87,1.47,4.23,2s2.62,1.12,3.79,1.57,2.25.8,3.19,1.13,1.76.57,2.44.76l1.55.46A2.11,2.11,0,0,1,273.19,92Z" style="fill:#263238"></path><path d="M167.4,134.69a3.09,3.09,0,0,1-.67.5c-.44.29-1.1.69-1.94,1.13a34.69,34.69,0,0,1-6.93,2.7,33.84,33.84,0,0,1-7.35,1.14c-1,0-1.73,0-2.26,0a2.22,2.22,0,0,1-.82-.11c0-.08,1.17-.09,3-.26a41.39,41.39,0,0,0,14.14-3.8A26.41,26.41,0,0,1,167.4,134.69Z" style="fill:#263238"></path><path d="M222,387.13,158.5,363.66l-6.8,13.68S135.81,384,135,405.13l9.67,14.93L220.7,423Z" style="fill:#ffbe9d"></path><path d="M291.44,402.37c-4.38-4.51-16.32-8.76-22.46-10.16l7.29,15.55c2,1.55,9.7,4.28,12.24,4.35s5.26-1.6,5.58-4.12C294.37,405.86,292.94,403.91,291.44,402.37Z" style="fill:#ffbe9d"></path><path d="M226.14,351.91a3.85,3.85,0,0,0,0,5.36l27.21,27.6,34.5,34.92,8.26,3.54-2.94-8.93-61.56-62.52a3.83,3.83,0,0,0-5.5,0Z" style="fill:#263238"></path><path d="M222,387l1.08-.12,24-2.69,6-1.82a10.39,10.39,0,0,1,7.86.75c6.13,3.21,17.77,9.91,21.95,16.39a7.47,7.47,0,0,1,.47,7.17l-1.68,3.65s3.67,2.81,1.08,8.43-6.76,4.75-6.76,4.75a13.84,13.84,0,0,1-9.23,4.54h-5.84a9.61,9.61,0,0,1-5.83,3.24c-3.89.65-19.07-2.62-20.59-3.13-.74-.24-17.1-6.67-17.1-6.67Z" style="fill:#ffbe9d"></path><path d="M271.9,389.86a12.64,12.64,0,0,1,3,1.76,47.51,47.51,0,0,1,6.37,5.39,15.66,15.66,0,0,1,1.54,1.86,6.57,6.57,0,0,1,.89,2.1,9.47,9.47,0,0,1,.22,3.79,8.45,8.45,0,0,1-.71,2.45,2.33,2.33,0,0,1-.48.8,15.94,15.94,0,0,0,.83-3.29,8.59,8.59,0,0,0-2.66-7.35,61.09,61.09,0,0,0-6.22-5.45C273,390.61,271.87,389.93,271.9,389.86Z" style="fill:#eb996e"></path><path d="M281.29,409.63a2.85,2.85,0,0,1-1,.11,15.12,15.12,0,0,1-2.72-.16,24.6,24.6,0,0,1-8.45-2.95,48.61,48.61,0,0,1-7.33-5.14c-.89-.73-1.58-1.33-2.06-1.76a3.8,3.8,0,0,1-.7-.71,31.19,31.19,0,0,1,3,2.18,60.83,60.83,0,0,0,7.36,5,27.22,27.22,0,0,0,8.26,3.05C279.87,409.62,281.29,409.54,281.29,409.63Z" style="fill:#eb996e"></path><path d="M277.73,423.3a2.31,2.31,0,0,1-.89.06,12.06,12.06,0,0,1-2.4-.33,44.59,44.59,0,0,1-7.4-2.94c-2.83-1.29-5.37-2.48-7.2-3.36a19.61,19.61,0,0,1-2.91-1.54,21.78,21.78,0,0,1,3.07,1.2c1.86.8,4.43,1.94,7.25,3.23a59.11,59.11,0,0,0,7.28,3.05C276.47,423.23,277.74,423.21,277.73,423.3Z" style="fill:#eb996e"></path><path d="M259.57,427.17a9.28,9.28,0,0,1-3.73-1.33,9.4,9.4,0,0,1-3.16-2.39c.09-.12,1.51.91,3.41,1.93S259.62,427,259.57,427.17Z" style="fill:#eb996e"></path><path d="M229.93,385.93a9.8,9.8,0,0,1-2.38.68,50.45,50.45,0,0,1-5.92.91,48.91,48.91,0,0,1-6,.21,10.42,10.42,0,0,1-2.47-.22,13.23,13.23,0,0,1,2.47-.15c1.52,0,3.62-.14,5.93-.35s4.39-.52,5.9-.76A12.84,12.84,0,0,1,229.93,385.93Z" style="fill:#eb996e"></path><path d="M180.54,371.81c.75-4.29-13.57-17.69-23.47-12.63l1.13-6.59L153.65,218.4s-36.84,3-51.9,44.39S73.53,354,77.29,374.18s11.24,35.37,22.54,42.07,42.25,6.69,42.25,6.69Z" style="fill:#83DB8C"></path><path d="M163,358.37a2.1,2.1,0,0,1-.53.1l-1.52.19a23.66,23.66,0,0,0-2.4.33c-.93.16-2,.29-3.15.58l-1.82.41c-.63.15-1.28.36-2,.54-1.35.35-2.75.87-4.24,1.38a63.4,63.4,0,0,0-9.2,4.38,62.31,62.31,0,0,0-8.3,5.93c-1.17,1-2.3,2-3.26,3-.49.5-1,1-1.42,1.44L124,378.07c-.81.87-1.44,1.74-2,2.48s-1.08,1.39-1.45,1.93-.66.91-.9,1.25-.33.42-.35.41a2.86,2.86,0,0,1,.26-.47l.82-1.3a20.81,20.81,0,0,1,1.39-2c.57-.75,1.19-1.65,2-2.53l1.23-1.43c.42-.49.92-1,1.4-1.47,1-1,2.09-2,3.26-3.1a60.9,60.9,0,0,1,8.34-6,60,60,0,0,1,9.31-4.38c1.5-.5,2.91-1,4.28-1.35.68-.17,1.33-.37,2-.51l1.84-.38c1.17-.27,2.25-.37,3.19-.51a24,24,0,0,1,2.42-.25l1.53-.08A1.87,1.87,0,0,1,163,358.37Z" style="fill:#263238"></path><path d="M154.48,359.28a10.31,10.31,0,0,1-1.76-.16c-1.13-.14-2.76-.33-4.78-.53-4-.42-9.63-.83-15.83-.86s-11.79.32-15.83.7c-2,.18-3.66.35-4.79.48a9.89,9.89,0,0,1-1.76.14,14,14,0,0,1,1.74-.34c1.12-.19,2.75-.42,4.77-.65a134.43,134.43,0,0,1,31.74.16c2,.25,3.65.5,4.77.7A13,13,0,0,1,154.48,359.28Z" style="fill:#263238"></path><path d="M180.54,371.81a3.93,3.93,0,0,0,0-.6,5.43,5.43,0,0,0-.45-1.67,15.74,15.74,0,0,0-4-5.16,41.94,41.94,0,0,0-3.65-2.94,15.16,15.16,0,0,0-4.95-2.22,26,26,0,0,0-12.92.46l-.36.09.06-.35c1.16-7.64,2.49-16.38,3.89-25.64,1.23-8,2.39-15.54,3.45-22.44s1.63-13.16,2.09-18.41.68-9.52.73-12.47c0-1.47,0-2.62,0-3.39,0-.37,0-.66,0-.89a1.36,1.36,0,0,1,0-.3,1,1,0,0,1,.05.3c0,.23,0,.52.08.88.06.78.11,1.93.11,3.4,0,3-.15,7.23-.57,12.5s-1,11.53-2,18.45-2.2,14.49-3.41,22.46c-1.43,9.25-2.77,18-3.95,25.62l-.3-.26a26.44,26.44,0,0,1,13.16-.39,15.66,15.66,0,0,1,5.05,2.33,40,40,0,0,1,3.64,3,15.33,15.33,0,0,1,4,5.31,5.24,5.24,0,0,1,.39,1.71A1.45,1.45,0,0,1,180.54,371.81Z" style="fill:#263238"></path><g style="opacity:0.30000000000000004"><path d="M154.48,359.45c-7.44.45-15.45,1.57-22.23,4.66s-12.83,8.16-16.13,14.85a4.18,4.18,0,0,0-.56,1.9,1.61,1.61,0,0,0,1,1.55,2.36,2.36,0,0,0,1.92-.65c3.93-2.91,7.33-6.47,11.11-9.59a60.28,60.28,0,0,1,24.85-12.72"></path></g><g style="opacity:0.30000000000000004"><path d="M154.48,359.28c16.49-21.42,21.35-52.55,10.18-77.16-1.63,25.52-6.21,51.17-10.18,77.16"></path></g><path d="M161.62,267.46c-.05,0-.11-.77-.29-2.15A35.63,35.63,0,0,0,133,234.64a37.25,37.25,0,0,0-5.83-.75c-1.38-.06-2.16-.06-2.16-.1a2.14,2.14,0,0,1,.56-.06c.37,0,.91-.06,1.61,0a32.6,32.6,0,0,1,5.89.59,35,35,0,0,1,27.38,25.19,31.49,31.49,0,0,1,1.08,5.82c.08.69.08,1.24.1,1.6A3.13,3.13,0,0,1,161.62,267.46Z" style="fill:#263238"></path><path d="M160.17,266.65s-.17-.1-.44-.34l-1.18-1.07c-.51-.47-1.13-1-1.89-1.66s-1.58-1.37-2.57-2.11-2-1.59-3.24-2.41-2.48-1.68-3.85-2.56a75.69,75.69,0,0,0-19.31-8.57c-1.57-.43-3.06-.85-4.48-1.14s-2.74-.58-4-.79-2.32-.35-3.29-.49-1.81-.22-2.49-.28l-1.59-.17a2.08,2.08,0,0,1-.55-.09,2.22,2.22,0,0,1,.56,0l1.59.07c.69,0,1.54.07,2.52.19s2.09.2,3.31.42,2.57.4,4,.73,2.94.68,4.52,1.09a80.87,80.87,0,0,1,10,3.61,79.78,79.78,0,0,1,9.4,5c1.37.9,2.68,1.74,3.85,2.62s2.25,1.69,3.21,2.47,1.79,1.53,2.53,2.18,1.35,1.24,1.84,1.74l1.11,1.13A3.42,3.42,0,0,1,160.17,266.65Z" style="fill:#fff"></path><path d="M162.63,294.45a4.06,4.06,0,0,1-.57-.41l-1.58-1.25c-.68-.55-1.51-1.22-2.51-2s-2.1-1.63-3.39-2.51-2.66-1.9-4.2-2.9-3.2-2-5-3.12c-3.55-2.11-7.54-4.27-11.85-6.3s-8.55-3.66-12.44-5c-2-.65-3.82-1.29-5.59-1.79s-3.4-1-4.92-1.36-2.89-.7-4.1-1-2.25-.5-3.11-.67l-2-.4a3.09,3.09,0,0,1-.68-.18,3.36,3.36,0,0,1,.7.08l2,.31c.86.13,1.92.31,3.13.57s2.62.52,4.13.91,3.19.78,5,1.31,3.64,1.1,5.61,1.74a132.71,132.71,0,0,1,12.51,5,132.6,132.6,0,0,1,11.88,6.35c1.75,1.1,3.44,2.13,5,3.19s2.92,2,4.18,2.95,2.37,1.81,3.35,2.58,1.8,1.45,2.46,2l1.51,1.33A3.16,3.16,0,0,1,162.63,294.45Z" style="fill:#fff"></path></g><g id="freepik--speech-bubble--inject-79"><circle cx="347.33" cy="126.42" r="46.72" transform="translate(-21.35 100.09) rotate(-15.92)" style="fill:#fafafa"></circle><circle cx="347.36" cy="126.42" r="46.87" transform="translate(211.49 470.19) rotate(-88.43)" style="fill:#fff"></circle><path d="M300.1,151.91c0,.05.5.12,1.3.53a6.14,6.14,0,0,1,2.62,2.64,5.87,5.87,0,0,1,.68,2.47,5.14,5.14,0,0,1-.74,2.81,5.59,5.59,0,0,1-10.38-1.45,5,5,0,0,1,.06-2.91,6,6,0,0,1,1.33-2.19,6.27,6.27,0,0,1,3.24-1.82,12.48,12.48,0,0,1,1.4-.14s-.13,0-.37-.06a2.06,2.06,0,0,0-.45,0,3.67,3.67,0,0,0-.61.06,6,6,0,0,0-3.43,1.77,6,6,0,0,0-1.45,2.29,5.4,5.4,0,0,0-.11,3.12,6.29,6.29,0,0,0,1.72,3,5.62,5.62,0,0,0,6.92,1,6.42,6.42,0,0,0,2.48-2.39,5.55,5.55,0,0,0,.75-3,6.27,6.27,0,0,0-3.59-5.25,2.75,2.75,0,0,0-.57-.22,1.81,1.81,0,0,0-.43-.11Z" style="fill:#263238"></path><path d="M300.38,126.28s0-.26.06-.76.08-1.26.14-2.23c0-.5.06-1,.1-1.65s.19-1.25.3-2,.23-1.48.36-2.29a8.23,8.23,0,0,1,.27-1.25c.11-.43.23-.87.35-1.32a44.7,44.7,0,0,1,5.22-12.47,46.87,46.87,0,0,1,11.94-13.28l2-1.5c.72-.47,1.47-.9,2.21-1.35l1.12-.68a11,11,0,0,1,1.16-.64l2.44-1.16c.41-.19.82-.4,1.24-.58l1.3-.48,2.63-1c.9-.3,1.84-.49,2.76-.74l1.41-.35c.23-.06.47-.13.7-.17l.73-.11a44.12,44.12,0,0,1,5.92-.68c1,0,2-.13,3.05-.11l3.1.17c.52,0,1,0,1.56.1l1.56.24c1.05.18,2.11.3,3.15.52a48.79,48.79,0,0,1,6.24,1.84L365,83c.26.1.52.19.78.3l.75.36,3,1.47c1,.53,1.93,1.16,2.91,1.74.48.31,1,.57,1.45.92l1.37,1a53.67,53.67,0,0,1,5.3,4.52L382.93,96l.59.66c.19.23.36.47.54.71l1.07,1.44,1.07,1.44.94,1.54.94,1.55.47.78c.14.27.26.55.4.82.52,1.1,1.05,2.2,1.58,3.3l1.26,3.47a46.34,46.34,0,0,1-.05,29.53l-1.28,3.47L388.87,148l-.41.82-.47.78-.94,1.55-.95,1.53L385,154.1,384,155.53l-.54.71-.6.66-2.39,2.62a51.28,51.28,0,0,1-5.32,4.5l-1.38,1c-.45.34-1,.6-1.44.91-1,.58-1.93,1.2-2.92,1.74l-3,1.45-.75.36c-.26.11-.52.19-.78.29l-1.55.57a49.24,49.24,0,0,1-6.25,1.81c-1.05.22-2.11.34-3.15.51l-1.56.23c-.52.07-1.05.07-1.57.1l-3.1.15c-1,0-2-.08-3.05-.12a44.12,44.12,0,0,1-5.92-.7l-.72-.11c-.24-.05-.47-.12-.71-.18l-1.4-.36c-.93-.25-1.86-.44-2.76-.74l-2.63-1-1.3-.48-1.23-.58-2.43-1.18a9.28,9.28,0,0,1-1.16-.64l-1.12-.68c-.74-.46-1.49-.89-2.2-1.36l-2-1.51a46.87,46.87,0,0,1-11.88-13.33c-.34-.57-.69-1.11-1-1.67l-.82-1.69-.79-1.63c-.12-.27-.26-.53-.37-.8l-.29-.8c-.4-1.07-.77-2.09-1.13-3.06s-.52-2-.77-2.84c-.12-.45-.23-.89-.34-1.32a7.14,7.14,0,0,1-.26-1.25c-.13-.82-.25-1.58-.36-2.29s-.23-1.36-.29-2-.06-1.15-.09-1.64c-.06-1-.1-1.72-.13-2.23s-.06-.76-.06-.76,0,.26,0,.76,0,1.26.08,2.24c0,.49,0,1,.07,1.65s.18,1.25.27,2,.22,1.48.34,2.3a8.13,8.13,0,0,0,.25,1.25l.34,1.33c.24.9.43,1.87.75,2.86s.73,2,1.11,3.07l.3.82c.1.27.24.53.36.8l.79,1.64.81,1.7c.31.56.66,1.11,1,1.69a47,47,0,0,0,11.91,13.44l2,1.53c.71.47,1.46.91,2.21,1.37l1.13.69a8.21,8.21,0,0,0,1.16.65l2.45,1.19c.41.2.82.41,1.24.6l1.31.48,2.65,1c.9.3,1.84.5,2.77.76l1.42.36c.23.06.47.14.71.18l.73.12a44.72,44.72,0,0,0,6,.71c1,0,2,.14,3.08.13l3.12-.15c.52,0,1.05,0,1.58-.09l1.57-.24c1.05-.17,2.12-.29,3.18-.5a49.58,49.58,0,0,0,6.3-1.83l1.57-.57c.26-.09.53-.18.79-.29l.75-.36,3.06-1.46c1-.54,2-1.17,2.95-1.75.48-.31,1-.57,1.46-.92l1.39-1a53.52,53.52,0,0,0,5.37-4.54l2.41-2.64.61-.66.54-.72,1.09-1.44,1.08-1.46,1-1.55.95-1.56.48-.78.41-.83,1.61-3.33,1.29-3.49a46.74,46.74,0,0,0,.06-29.81c-.43-1.17-.86-2.33-1.28-3.5s-1.07-2.22-1.6-3.33c-.13-.27-.26-.55-.4-.83l-.48-.78-.94-1.57-.95-1.55-1.09-1.46-1.08-1.44c-.18-.24-.35-.49-.54-.72l-.6-.67-2.4-2.64a52.22,52.22,0,0,0-5.35-4.56l-1.39-1c-.46-.35-1-.62-1.46-.93-1-.58-1.94-1.21-2.94-1.76l-3-1.47-.76-.37-.79-.29-1.56-.58a51.76,51.76,0,0,0-6.29-1.85c-1.06-.21-2.13-.34-3.18-.51l-1.57-.24c-.53-.07-1.06-.07-1.58-.11l-3.12-.16c-1,0-2.06.08-3.08.12a43.27,43.27,0,0,0-6,.69l-.73.11c-.24,0-.47.12-.71.18l-1.41.36c-.94.25-1.88.45-2.78.74l-2.66,1-1.3.48c-.43.19-.84.4-1.25.59l-2.45,1.18a8.92,8.92,0,0,0-1.17.65l-1.13.68c-.74.46-1.5.89-2.21,1.36l-2,1.53a46.82,46.82,0,0,0-12,13.39,44.82,44.82,0,0,0-5.18,12.56c-.11.46-.23.9-.34,1.32a10.09,10.09,0,0,0-.26,1.26c-.12.82-.23,1.59-.34,2.3s-.22,1.37-.28,2-.05,1.16-.08,1.65c0,1-.07,1.72-.09,2.24S300.38,126.28,300.38,126.28Z" style="fill:#263238"></path><circle cx="332.94" cy="126.92" r="4.87" style="fill:#263238"></circle><circle cx="347.5" cy="126.92" r="4.87" style="fill:#263238"></circle><circle cx="362.05" cy="126.92" r="4.87" style="fill:#263238"></circle></g></svg>