<svg width="30" height="30" viewBox="0 0 30 30" fill="none" xmlns="http://www.w3.org/2000/svg">
<path fill-rule="evenodd" clip-rule="evenodd" d="M14.6875 20.1929C14.17 20.1929 13.75 19.7729 13.75 19.2554V10.0967C13.75 9.57918 14.17 9.15918 14.6875 9.15918C15.205 9.15918 15.625 9.57918 15.625 10.0967V19.2554C15.625 19.7729 15.205 20.1929 14.6875 20.1929" fill="white"/>
<path fill-rule="evenodd" clip-rule="evenodd" d="M19.2706 15.6128H10.1044C9.58562 15.6128 9.16687 15.1928 9.16687 14.6753C9.16687 14.1578 9.58562 13.7378 10.1044 13.7378H19.2706C19.7881 13.7378 20.2081 14.1578 20.2081 14.6753C20.2081 15.1928 19.7881 15.6128 19.2706 15.6128" fill="white"/>
<path fill-rule="evenodd" clip-rule="evenodd" d="M8.83 3.125C5.365 3.125 3.125 5.49625 3.125 9.16875V20.2062C3.125 23.8787 5.365 26.25 8.83 26.25H20.545C24.0112 26.25 26.25 23.8787 26.25 20.2062V9.16875C26.25 5.49625 24.0112 3.125 20.545 3.125H8.83ZM20.545 28.125H8.83C4.29625 28.125 1.25 24.9425 1.25 20.2062V9.16875C1.25 4.4325 4.29625 1.25 8.83 1.25H20.545C25.0787 1.25 28.125 4.4325 28.125 9.16875V20.2062C28.125 24.9425 25.0787 28.125 20.545 28.125V28.125Z" fill="white"/>
</svg>
